<svg width="29" height="28" viewBox="0 0 29 28" fill="none" xmlns="http://www.w3.org/2000/svg">
<rect x="0.960938" width="27.9121" height="27.9121" rx="13.956" fill="#F8F9FC"/>
<g clip-path="url(#clip0_289_6119)">
<path fill-rule="evenodd" clip-rule="evenodd" d="M20.7351 8.13051C20.1072 7.50412 19.2565 7.15234 18.3696 7.15234C17.4826 7.15234 16.6319 7.50412 16.004 8.13051L15.362 8.77249C14.9462 9.19142 14.6484 9.71281 14.4989 10.2838C14.3494 10.8549 14.3535 11.4553 14.5107 12.0242C14.5241 12.0955 14.5521 12.1632 14.593 12.223C14.6339 12.2829 14.6868 12.3336 14.7484 12.3719C14.8099 12.4103 14.8787 12.4354 14.9505 12.4457C15.0222 12.4561 15.0953 12.4514 15.1652 12.432C15.235 12.4126 15.3001 12.3789 15.3562 12.333C15.4124 12.2872 15.4584 12.2301 15.4913 12.1656C15.5242 12.101 15.5434 12.0303 15.5476 11.9579C15.5518 11.8855 15.5409 11.8131 15.5156 11.7451C15.4095 11.3542 15.4078 10.9422 15.5107 10.5504C15.6135 10.1586 15.8173 9.80062 16.1017 9.51216L16.7437 8.87018C17.1822 8.45293 17.7643 8.22023 18.3696 8.22023C18.9749 8.22023 19.557 8.45293 19.9955 8.87018C20.4241 9.30273 20.6646 9.88707 20.6646 10.4961C20.6646 11.105 20.4241 11.6894 19.9955 12.1219L19.3535 12.7639C19.0677 13.0501 18.7109 13.2553 18.3198 13.3583C17.9287 13.4612 17.5172 13.4584 17.1275 13.3501C16.9942 13.3112 16.851 13.3269 16.7293 13.3936C16.6076 13.4603 16.5174 13.5727 16.4785 13.7059C16.4397 13.8392 16.4553 13.9824 16.5221 14.1041C16.5888 14.2258 16.7012 14.316 16.8344 14.3549C17.4042 14.5165 18.0067 14.5227 18.5797 14.373C19.1527 14.2233 19.6752 13.9232 20.0931 13.5036L20.7351 12.8616C21.3581 12.2319 21.7076 11.3819 21.7076 10.4961C21.7076 9.61025 21.3581 8.76021 20.7351 8.13051ZM14.6642 15.5272C14.5979 15.5449 14.5358 15.5757 14.4815 15.6177C14.4272 15.6598 14.3818 15.7122 14.348 15.772C14.3142 15.8318 14.2927 15.8977 14.2847 15.9659C14.2767 16.0341 14.2824 16.1032 14.3014 16.1692C14.4074 16.5601 14.4091 16.9721 14.3063 17.3639C14.2034 17.7557 13.9996 18.1137 13.7152 18.4022L13.0733 19.0441C12.6348 19.4614 12.0527 19.6941 11.4474 19.6941C10.8421 19.6941 10.26 19.4614 9.82149 19.0441C9.39281 18.6116 9.1523 18.0272 9.1523 17.4183C9.1523 16.8093 9.39281 16.2249 9.82149 15.7924L10.4635 15.1504C10.7493 14.8642 11.106 14.6591 11.4971 14.5561C11.8883 14.4531 12.2998 14.4559 12.6895 14.5642C12.7554 14.5835 12.8246 14.5895 12.8929 14.5821C12.9612 14.5746 13.0274 14.5538 13.0876 14.5207C13.1479 14.4877 13.2011 14.4431 13.2441 14.3895C13.2871 14.3359 13.3192 14.2743 13.3384 14.2084C13.3577 14.1424 13.3637 14.0733 13.3563 14.0049C13.3488 13.9366 13.3279 13.8704 13.2949 13.8102C13.2618 13.7499 13.2172 13.6968 13.1637 13.6537C13.1101 13.6107 13.0485 13.5787 12.9825 13.5594C12.4126 13.4001 11.8106 13.3949 11.2381 13.5445C10.6655 13.6941 10.143 13.993 9.7238 14.4107L9.08182 15.0527C8.45882 15.6824 8.10938 16.5324 8.10938 17.4183C8.10938 18.3041 8.45882 19.1541 9.08182 19.7838C9.70973 20.4102 10.5604 20.762 11.4474 20.762C12.3343 20.762 13.185 20.4102 13.8129 19.7838L14.4549 19.1418C14.8708 18.7229 15.1685 18.2015 15.318 17.6305C15.4675 17.0594 15.4634 16.459 15.3062 15.8901C15.2885 15.8237 15.2577 15.7616 15.2157 15.7073C15.1737 15.653 15.1212 15.6076 15.0614 15.5738C15.0017 15.54 14.9357 15.5185 14.8675 15.5105C14.7993 15.5025 14.7302 15.5082 14.6642 15.5272ZM12.5359 16.853C12.3978 16.85 12.2658 16.7952 12.1661 16.6995C12.0681 16.6014 12.0131 16.4684 12.0131 16.3297C12.0131 16.191 12.0681 16.058 12.1661 15.9598L16.9112 11.2148C17.0104 11.1223 17.1416 11.072 17.2772 11.0744C17.4128 11.0768 17.5421 11.1317 17.638 11.2276C17.7339 11.3235 17.7888 11.4529 17.7912 11.5885C17.7936 11.724 17.7433 11.8553 17.6508 11.9545L12.9058 16.6995C12.8069 16.7964 12.6744 16.8514 12.5359 16.853Z" fill="#0049B3"/>
</g>
<defs>
<clipPath id="clip0_289_6119">
<rect width="16.7473" height="16.7473" fill="white" transform="translate(6.53906 5.58203)"/>
</clipPath>
</defs>
</svg>
