<svg width="29" height="28" viewBox="0 0 29 28" fill="none" xmlns="http://www.w3.org/2000/svg">
<rect x="0.960938" width="27.9121" height="27.9121" rx="13.956" fill="#F8F9FC"/>
<g clip-path="url(#clip0_289_6113)">
<path fill-rule="evenodd" clip-rule="evenodd" d="M21.1879 7.85186H8.62742C8.30412 7.8537 7.99458 7.98294 7.76596 8.21156C7.53735 8.44017 7.4081 8.74971 7.40627 9.07302V9.42192C7.41028 9.61449 7.45978 9.80339 7.55074 9.97317C7.64169 10.143 7.77152 10.2888 7.92962 10.3988L14.6285 15.423C14.7191 15.491 14.8293 15.5277 14.9425 15.5277C15.0558 15.5277 15.166 15.491 15.2565 15.423L21.9554 10.3988C22.1071 10.2851 22.2302 10.1376 22.315 9.96804C22.3998 9.79847 22.4439 9.6115 22.4439 9.42192V9.07302C22.4429 8.90998 22.4095 8.74876 22.3456 8.59876C22.2817 8.44876 22.1886 8.31298 22.0717 8.19933C21.9548 8.08567 21.8164 7.99642 21.6647 7.93677C21.513 7.87711 21.3509 7.84825 21.1879 7.85186ZM21.3623 9.42192C21.3618 9.44891 21.3553 9.47544 21.3432 9.49958C21.3311 9.52373 21.3138 9.54487 21.2925 9.56148L14.9076 14.3484L8.52275 9.56148C8.50147 9.54487 8.48417 9.52373 8.47209 9.49958C8.46002 9.47544 8.45349 9.44891 8.45297 9.42192V9.07302C8.45297 9.02675 8.47135 8.98238 8.50407 8.94966C8.53678 8.91695 8.58116 8.89857 8.62742 8.89857H21.1879C21.2341 8.89857 21.2785 8.91695 21.3112 8.94966C21.3439 8.98238 21.3623 9.02675 21.3623 9.07302V9.42192ZM21.8857 11.2013C21.7474 11.2031 21.6154 11.2588 21.5176 11.3566C21.4198 11.4544 21.3641 11.5864 21.3623 11.7247V18.1444C21.3587 18.1876 21.3386 18.2278 21.306 18.2564C21.2735 18.285 21.2312 18.2999 21.1879 18.298H8.62742C8.58413 18.2999 8.54177 18.285 8.50924 18.2564C8.47671 18.2278 8.45654 18.1876 8.45297 18.1444V11.7247C8.45297 11.5859 8.39783 11.4527 8.29969 11.3546C8.20154 11.2565 8.06842 11.2013 7.92962 11.2013C7.79082 11.2013 7.6577 11.2565 7.55956 11.3546C7.46141 11.4527 7.40627 11.5859 7.40627 11.7247V18.1444C7.40534 18.3051 7.4363 18.4643 7.49734 18.6129C7.55838 18.7614 7.64829 18.8964 7.76187 19.01C7.87545 19.1236 8.01044 19.2135 8.15902 19.2745C8.30759 19.3356 8.4668 19.3665 8.62742 19.3656H21.1879C21.3485 19.3665 21.5077 19.3356 21.6563 19.2745C21.8048 19.2135 21.9398 19.1236 22.0534 19.01C22.167 18.8964 22.2569 18.7614 22.3179 18.6129C22.379 18.4643 22.4099 18.3051 22.409 18.1444V11.7247C22.4072 11.5864 22.3515 11.4544 22.2537 11.3566C22.156 11.2588 22.0239 11.2031 21.8857 11.2013ZM13.4911 10.4477C13.5892 10.3495 13.7222 10.2943 13.8609 10.2942H15.9543C16.0931 10.2942 16.2263 10.3493 16.3244 10.4475C16.4226 10.5456 16.4777 10.6787 16.4777 10.8175C16.4777 10.9563 16.4226 11.0894 16.3244 11.1876C16.2263 11.2857 16.0931 11.3409 15.9543 11.3409H13.8609C13.7575 11.3408 13.6564 11.31 13.5704 11.2525C13.4844 11.195 13.4174 11.1133 13.3779 11.0177C13.3383 10.9222 13.3279 10.817 13.3481 10.7155C13.3682 10.6141 13.418 10.5209 13.4911 10.4477Z" fill="#0049B3"/>
</g>
<defs>
<clipPath id="clip0_289_6113">
<rect width="16.7473" height="16.7473" fill="white" transform="translate(6.53906 5.58203)"/>
</clipPath>
</defs>
</svg>
