<svg width="36" height="36" viewBox="0 0 36 36" fill="none" xmlns="http://www.w3.org/2000/svg">
<path d="M34.6663 18.0007C34.6663 8.79565 27.2047 1.33398 17.9997 1.33398C8.79467 1.33398 1.33301 8.79565 1.33301 18.0007C1.33301 27.2057 8.79467 34.6673 17.9997 34.6673" stroke="black" stroke-width="1.5" stroke-linecap="round" stroke-linejoin="round"/>
<path d="M19.6661 1.41797C19.6661 1.41797 24.6661 8.0013 24.6661 18.0013M16.3328 34.5846C16.3328 34.5846 11.3328 28.0013 11.3328 18.0013C11.3328 8.0013 16.3328 1.41797 16.3328 1.41797M2.38281 23.8346H17.9995M2.38281 12.168H33.6161" stroke="black" stroke-width="1.5" stroke-linecap="round" stroke-linejoin="round"/>
<path d="M34.4643 27.8621C35.2877 28.3687 35.236 29.6004 34.3893 29.6971L30.111 30.1821L28.1927 34.0354C27.8127 34.8004 26.6377 34.4254 26.4427 33.4787L24.351 23.2854C24.186 22.4854 24.906 21.9821 25.601 22.4104L34.4643 27.8621Z" stroke="black" stroke-width="1.5"/>
</svg>
