<svg width="34" height="26" viewBox="0 0 34 26" fill="none" xmlns="http://www.w3.org/2000/svg">
<path d="M2 1.33398V0.0839844C1.66848 0.0839844 1.35054 0.21568 1.11612 0.450101C0.881696 0.684521 0.75 1.00246 0.75 1.33398H2ZM32 1.33398H33.25C33.25 1.00246 33.1183 0.684521 32.8839 0.450101C32.6495 0.21568 32.3315 0.0839844 32 0.0839844V1.33398ZM2 2.58398H32V0.0839844H2V2.58398ZM30.75 1.33398V21.334H33.25V1.33398H30.75ZM28.6667 23.4173H5.33333V25.9173H28.6667V23.4173ZM3.25 21.334V1.33398H0.75V21.334H3.25ZM5.33333 23.4173C4.18333 23.4173 3.25 22.484 3.25 21.334H0.75C0.75 22.5496 1.23289 23.7153 2.09243 24.5749C2.95197 25.4344 4.11776 25.9173 5.33333 25.9173V23.4173ZM30.75 21.334C30.75 22.484 29.8167 23.4173 28.6667 23.4173V25.9173C29.8822 25.9173 31.048 25.4344 31.9076 24.5749C32.7671 23.7153 33.25 22.5496 33.25 21.334H30.75Z" fill="black"/>
<path d="M2 1.33398L17 16.334L32 1.33398" stroke="black" stroke-width="2.5" stroke-linecap="round" stroke-linejoin="round"/>
</svg>
