<svg width="30" height="35" viewBox="0 0 30 35" fill="none" xmlns="http://www.w3.org/2000/svg">
<path fill-rule="evenodd" clip-rule="evenodd" d="M7.08398 14.6667C7.08398 12.567 7.91806 10.5534 9.40272 9.06874C10.8874 7.58408 12.901 6.75 15.0007 6.75C17.1003 6.75 19.1139 7.58408 20.5986 9.06874C22.0832 10.5534 22.9173 12.567 22.9173 14.6667C22.9173 16.7663 22.0832 18.7799 20.5986 20.2646C19.1139 21.7493 17.1003 22.5833 15.0007 22.5833C12.901 22.5833 10.8874 21.7493 9.40272 20.2646C7.91806 18.7799 7.08398 16.7663 7.08398 14.6667ZM15.0007 9.25C13.5641 9.25 12.1863 9.82068 11.1705 10.8365C10.1547 11.8523 9.58398 13.2301 9.58398 14.6667C9.58398 16.1033 10.1547 17.481 11.1705 18.4968C12.1863 19.5126 13.5641 20.0833 15.0007 20.0833C16.4372 20.0833 17.815 19.5126 18.8308 18.4968C19.8466 17.481 20.4173 16.1033 20.4173 14.6667C20.4173 13.2301 19.8466 11.8523 18.8308 10.8365C17.815 9.82068 16.4372 9.25 15.0007 9.25Z" fill="black"/>
<path fill-rule="evenodd" clip-rule="evenodd" d="M0.873635 12.7623C1.15851 9.30699 2.73235 6.08513 5.28266 3.73644C7.83297 1.38774 11.1733 0.0839738 14.6403 0.0839844H15.3603C18.8274 0.0839738 22.1676 1.38774 24.7179 3.73644C27.2683 6.08513 28.8421 9.30699 29.127 12.7623C29.444 16.6111 28.255 20.4328 25.8103 23.4223L17.822 33.1907C17.4801 33.6087 17.0496 33.9456 16.5616 34.1769C16.0736 34.4082 15.5403 34.5282 15.0003 34.5282C14.4603 34.5282 13.927 34.4082 13.439 34.1769C12.951 33.9456 12.5205 33.6087 12.1786 33.1907L4.1903 23.4223C1.7455 20.4328 0.556444 16.6111 0.873635 12.7623ZM14.6403 2.58398C11.8011 2.58441 9.06586 3.65236 6.9775 5.57585C4.88915 7.49934 3.60036 10.1377 3.36697 12.9673C3.10297 16.1704 4.09244 19.351 6.12697 21.839L14.1153 31.609C14.2227 31.7404 14.358 31.8463 14.5113 31.9191C14.6646 31.9918 14.8322 32.0295 15.002 32.0295C15.1717 32.0295 15.3393 31.9918 15.4926 31.9191C15.646 31.8463 15.7812 31.7404 15.8886 31.609L23.877 21.839C25.9103 19.3505 26.8986 16.17 26.6336 12.9673C26.4002 10.1374 25.1112 7.49881 23.0225 5.57529C20.9338 3.65176 18.1981 2.584 15.3586 2.58398H14.6403Z" fill="black"/>
</svg>
