<svg width="20" height="20" viewBox="0 0 20 20" fill="none" xmlns="http://www.w3.org/2000/svg">
<path d="M17.5 8.33464H15.8334V3.33464H16.6667V1.66797H3.33335V3.33464H4.16669V8.33464H2.50002C2.27901 8.33464 2.06704 8.42243 1.91076 8.57871C1.75448 8.73499 1.66669 8.94695 1.66669 9.16797V16.668H18.3334V9.16797C18.3334 8.94695 18.2456 8.73499 18.0893 8.57871C17.933 8.42243 17.721 8.33464 17.5 8.33464ZM11.6667 15.0013V11.668H8.33335V15.0013H5.83335V3.33464H14.1667V15.0013H11.6667Z" fill="currentColor"/>
<path d="M7.5 5H9.16667V6.66667H7.5V5ZM10.8333 5H12.5V6.66667H10.8333V5ZM7.5 8.33333H9.16667V10H7.5V8.33333ZM10.8333 8.33333H12.5V10H10.8333V8.33333Z" fill="black"/>
</svg>
