<svg width="22" height="22" viewBox="0 0 22 22" fill="none" xmlns="http://www.w3.org/2000/svg">
<path d="M6.49832 6.41536C6.49832 6.87652 6.87216 7.25036 7.33332 7.25036C7.79447 7.25036 8.16832 6.87652 8.16832 6.41536H6.49832ZM8.16832 15.582C8.16832 15.1209 7.79447 14.747 7.33332 14.747C6.87216 14.747 6.49832 15.1209 6.49832 15.582H8.16832ZM8.33433 19.9655L8.71342 19.2216H8.71341L8.33433 19.9655ZM7.53314 19.1643L6.78915 19.5434L6.78915 19.5434L7.53314 19.1643ZM18.1335 19.1643L18.8775 19.5434V19.5434L18.1335 19.1643ZM17.3323 19.9655L16.9532 19.2215L16.9532 19.2216L17.3323 19.9655ZM17.3323 2.03185L16.9532 2.77584V2.77584L17.3323 2.03185ZM18.1335 2.83305L17.3895 3.21213V3.21213L18.1335 2.83305ZM7.53314 2.83305L6.78915 2.45397V2.45397L7.53314 2.83305ZM8.33433 2.03185L7.95525 1.28786L8.33433 2.03185ZM2.74998 10.1637C2.28882 10.1637 1.91498 10.5375 1.91498 10.9987C1.91498 11.4599 2.28882 11.8337 2.74998 11.8337L2.74998 10.1637ZM12.8333 11.8337C13.2945 11.8337 13.6683 11.4599 13.6683 10.9987C13.6683 10.5375 13.2945 10.1637 12.8333 10.1637L12.8333 11.8337ZM5.17375 8.83913C5.49984 8.51304 5.49984 7.98435 5.17375 7.65826C4.84766 7.33218 4.31897 7.33218 3.99288 7.65826L5.17375 8.83913ZM2.87041 9.96161L2.27997 9.37117H2.27997L2.87041 9.96161ZM2.8704 12.0358L2.27997 12.6262L2.27997 12.6262L2.8704 12.0358ZM3.99288 14.3391C4.31897 14.6652 4.84766 14.6652 5.17375 14.3391C5.49984 14.013 5.49984 13.4844 5.17375 13.1583L3.99288 14.3391ZM2.25788 10.7154L3.05201 10.9735H3.05201L2.25788 10.7154ZM2.25788 11.282L3.05201 11.0239L2.25788 11.282ZM8.16832 6.41536V4.76536H6.49832V6.41536H8.16832ZM10.2666 2.66703H15.4V0.997031H10.2666V2.66703ZM17.4983 4.76536V17.232H19.1683V4.76536H17.4983ZM15.4 19.3304H10.2666V21.0004H15.4V19.3304ZM8.16832 17.232V15.582H6.49832V17.232H8.16832ZM10.2666 19.3304C9.73949 19.3304 9.39434 19.3297 9.13052 19.3082C8.87644 19.2874 8.77217 19.2515 8.71342 19.2216L7.95525 20.7095C8.28867 20.8794 8.63717 20.9434 8.99452 20.9726C9.34213 21.001 9.76705 21.0004 10.2666 21.0004V19.3304ZM6.49832 17.232C6.49832 17.7316 6.49767 18.1566 6.52607 18.5042C6.55526 18.8615 6.61926 19.21 6.78915 19.5434L8.27713 18.7853C8.24719 18.7265 8.21128 18.6222 8.19052 18.3682C8.16897 18.1043 8.16832 17.7592 8.16832 17.232H6.49832ZM8.71341 19.2216C8.52557 19.1258 8.37284 18.9731 8.27713 18.7853L6.78915 19.5434C7.04497 20.0455 7.45317 20.4537 7.95525 20.7095L8.71341 19.2216ZM17.4983 17.232C17.4983 17.7592 17.4977 18.1043 17.4761 18.3682C17.4554 18.6222 17.4194 18.7265 17.3895 18.7853L18.8775 19.5434C19.0474 19.21 19.1114 18.8615 19.1406 18.5042C19.169 18.1566 19.1683 17.7316 19.1683 17.232H17.4983ZM15.4 21.0004C15.8996 21.0004 16.3245 21.001 16.6721 20.9726C17.0295 20.9434 17.378 20.8794 17.7114 20.7095L16.9532 19.2216C16.8945 19.2515 16.7902 19.2874 16.5361 19.3082C16.2723 19.3297 15.9271 19.3304 15.4 19.3304V21.0004ZM17.3895 18.7853C17.2938 18.9731 17.1411 19.1258 16.9532 19.2215L17.7114 20.7095C18.2135 20.4537 18.6217 20.0455 18.8775 19.5434L17.3895 18.7853ZM15.4 2.66703C15.9271 2.66703 16.2723 2.66768 16.5361 2.68924C16.7902 2.70999 16.8945 2.74591 16.9532 2.77584L17.7114 1.28786C17.378 1.11798 17.0295 1.05398 16.6721 1.02478C16.3245 0.996382 15.8996 0.997031 15.4 0.997031V2.66703ZM19.1683 4.76536C19.1683 4.26576 19.169 3.84084 19.1406 3.49324C19.1114 3.13589 19.0474 2.78738 18.8775 2.45397L17.3895 3.21213C17.4194 3.27089 17.4554 3.37516 17.4761 3.62923C17.4977 3.89305 17.4983 4.2382 17.4983 4.76536H19.1683ZM16.9532 2.77584C17.1411 2.87156 17.2938 3.02428 17.3895 3.21213L18.8775 2.45397C18.6217 1.95189 18.2135 1.54368 17.7114 1.28786L16.9532 2.77584ZM8.16832 4.76536C8.16832 4.2382 8.16897 3.89305 8.19052 3.62923C8.21128 3.37516 8.24719 3.27089 8.27713 3.21213L6.78915 2.45397C6.61926 2.78738 6.55526 3.13589 6.52607 3.49324C6.49767 3.84084 6.49832 4.26576 6.49832 4.76536H8.16832ZM10.2666 0.997031C9.76705 0.997031 9.34213 0.996382 8.99452 1.02478C8.63717 1.05398 8.28867 1.11798 7.95525 1.28786L8.71342 2.77584C8.77217 2.74591 8.87644 2.70999 9.13052 2.68924C9.39434 2.66768 9.73949 2.66703 10.2666 2.66703V0.997031ZM8.27713 3.21213C8.37284 3.02428 8.52557 2.87156 8.71342 2.77584L7.95525 1.28786C7.45317 1.54368 7.04497 1.95189 6.78915 2.45397L8.27713 3.21213ZM2.74998 11.8337L12.8333 11.8337L12.8333 10.1637L2.74998 10.1637L2.74998 11.8337ZM3.99288 7.65826L2.27997 9.37117L3.46084 10.552L5.17375 8.83913L3.99288 7.65826ZM2.27997 12.6262L3.99288 14.3391L5.17375 13.1583L3.46084 11.4454L2.27997 12.6262ZM2.27997 9.37117C2.10821 9.54294 1.94342 9.70681 1.81696 9.85577C1.68418 10.0122 1.54538 10.2062 1.46375 10.4574L3.05201 10.9735C3.03838 11.0154 3.02434 11.014 3.09007 10.9366C3.16212 10.8517 3.26959 10.7433 3.46084 10.552L2.27997 9.37117ZM3.46084 11.4454C3.2696 11.2541 3.16213 11.1457 3.09007 11.0608C3.02434 10.9834 3.03838 10.982 3.05201 11.0239L1.46375 11.54C1.54538 11.7912 1.68418 11.9852 1.81696 12.1416C1.94342 12.2906 2.10821 12.4545 2.27997 12.6262L3.46084 11.4454ZM1.46375 10.4574C1.34944 10.8092 1.34944 11.1882 1.46375 11.54L3.05201 11.0239C3.04668 11.0075 3.04668 10.9899 3.05201 10.9735L1.46375 10.4574Z" fill="white"/>
</svg>
