<svg width="31" height="31" viewBox="0 0 31 31" fill="none" xmlns="http://www.w3.org/2000/svg">
<path fill-rule="evenodd" clip-rule="evenodd" d="M21.2074 5.60269L20.0275 1.66896C20.0275 0.746859 17.534 0 15.0206 0C12.5071 0 10.0137 0.746859 10.0137 1.66896L8.83376 5.60269C6.01656 6.20519 4.17236 7.20907 4.17236 8.34479C4.17236 10.189 9.02903 11.6827 15.0206 11.6827C21.0122 11.6827 25.8688 10.189 25.8688 8.34479C25.8688 7.20907 24.0246 6.20519 21.2074 5.60269ZM18.4687 2.28147C18.3033 2.19921 18.1313 2.13083 17.9546 2.07702C17.2094 1.83752 16.1346 1.66896 15.0206 1.66896C13.9066 1.66896 12.8318 1.83752 12.0866 2.07785C11.8512 2.15296 11.6835 2.22472 11.5725 2.28147L10.9625 4.31509C11.1261 4.3379 11.3116 4.36182 11.5191 4.38686C14.0324 4.67877 16.5723 4.65466 19.0795 4.31509L18.4687 2.28147ZM19.5635 5.93148C19.2818 5.97354 18.9994 6.0111 18.7165 6.04413C16.2609 6.33002 13.7803 6.33002 11.3247 6.04413C11.0418 6.01125 10.7594 5.97369 10.4777 5.93148L10.1481 7.02798L9.18258 7.23493C7.86076 7.51699 6.88275 7.87248 6.27859 8.21962C6.21038 8.25897 6.14358 8.30072 6.07831 8.34479C6.4288 8.58095 7.00709 8.85382 7.84073 9.11001C9.60482 9.65242 12.1433 10.0138 15.0206 10.0138C17.8979 10.0138 20.4364 9.65242 22.2005 9.11001C23.0341 8.85382 23.6124 8.58095 23.9629 8.34396C23.8976 8.30045 23.8308 8.25926 23.7626 8.22045C23.1584 7.87248 22.1804 7.51699 20.8586 7.23493L19.8931 7.02798L19.5635 5.93148ZM5.78291 8.09278L5.79125 8.10613C5.78513 8.09779 5.78235 8.09334 5.78291 8.09278ZM5.78958 8.58929L5.79543 8.58011L5.79376 8.58345L5.78958 8.58929ZM11.4156 2.3766L11.4056 2.38494L11.419 2.37326L11.4156 2.3766ZM18.6239 2.37326L18.6381 2.38494C18.6369 2.38494 18.6322 2.38105 18.6239 2.37326Z" fill="#30A85F"/>
<path d="M8.34644 10.9766C8.38029 12.7244 9.09838 14.3892 10.3464 15.6133C11.5945 16.8374 13.2729 17.5231 15.021 17.5231C16.7692 17.5231 18.4476 16.8374 19.6956 15.6133C20.9437 14.3892 21.6617 12.7244 21.6956 10.9766C21.1371 11.1093 20.5737 11.2207 20.0066 11.3104C19.8927 12.554 19.3182 13.7102 18.3957 14.5521C17.4732 15.3939 16.2695 15.8606 15.0206 15.8606C13.7717 15.8606 12.568 15.3939 11.6455 14.5521C10.723 13.7102 10.1485 12.554 10.0346 11.3104C9.46782 11.2206 8.9047 11.1093 8.34644 10.9766Z" fill="#30A85F"/>
<path fill-rule="evenodd" clip-rule="evenodd" d="M6.53394 30.0411C6.62573 29.7799 6.6758 29.4987 6.6758 29.2066V28.3721H23.3654V25.8687H20.3195L20.1718 25.9179C19.8914 26.0081 19.4959 26.1257 19.0027 26.2417C17.6974 26.5474 16.3612 26.7022 15.0206 26.7032C13.4034 26.7032 12.0215 26.4729 11.0393 26.2417C10.5946 26.1375 10.155 26.013 9.72165 25.8687H7.77481C8.41968 25.4411 8.95667 24.8698 9.34363 24.1997H10.0137V19.5383C11.6736 19.3164 13.346 19.201 15.0206 19.1929C20.0341 19.1929 30.0412 20.5139 30.0412 25.0342V30.0411H6.53394ZM27.4001 23.5514C28.1653 24.123 28.3723 24.612 28.3723 25.0342V28.3721H25.0343V25.0342C25.0343 24.8129 24.9464 24.6007 24.7899 24.4442C24.6334 24.2877 24.4212 24.1997 24.1999 24.1997V22.096C25.5617 22.5049 26.6607 22.9989 27.4001 23.5514ZM20.0275 21.2232C20.8644 21.3383 21.7106 21.4852 22.5309 21.6654V24.1997H20.0275V21.2232ZM15.0206 20.8618C16.1352 20.8668 17.249 20.9225 18.3585 21.0287V24.6754C17.2617 24.9128 16.1428 25.0331 15.0206 25.0342C13.8984 25.0331 12.7795 24.9128 11.6827 24.6754V21.0287C12.9069 20.9136 14.0593 20.8618 15.0206 20.8618Z" fill="#30A85F"/>
<path d="M1.66896 15.855C1.66896 15.6337 1.58104 15.4214 1.42454 15.2649C1.26805 15.1084 1.0558 15.0205 0.834479 15.0205C0.613162 15.0205 0.400909 15.1084 0.244413 15.2649C0.0879183 15.4214 0 15.6337 0 15.855V21.6963C0 22.5816 0.351672 23.4306 0.977653 24.0566C1.60363 24.6826 2.45265 25.0343 3.33792 25.0343V29.2067C3.33792 29.428 3.42583 29.6402 3.58233 29.7967C3.73883 29.9532 3.95108 30.0411 4.1724 30.0411C4.39371 30.0411 4.60597 29.9532 4.76246 29.7967C4.91896 29.6402 5.00688 29.428 5.00688 29.2067V25.0343C5.89215 25.0343 6.74116 24.6826 7.36714 24.0566C7.99312 23.4306 8.34479 22.5816 8.34479 21.6963V15.855C8.34479 15.6337 8.25687 15.4214 8.10038 15.2649C7.94388 15.1084 7.73163 15.0205 7.51031 15.0205C7.28899 15.0205 7.07674 15.1084 6.92025 15.2649C6.76375 15.4214 6.67583 15.6337 6.67583 15.855V21.6963C6.67583 22.139 6.5 22.5635 6.18701 22.8765C5.87402 23.1895 5.44951 23.3653 5.00688 23.3653V15.855C5.00688 15.6337 4.91896 15.4214 4.76246 15.2649C4.60597 15.1084 4.39371 15.0205 4.1724 15.0205C3.95108 15.0205 3.73883 15.1084 3.58233 15.2649C3.42583 15.4214 3.33792 15.6337 3.33792 15.855V23.3653C2.89528 23.3653 2.47078 23.1895 2.15779 22.8765C1.84479 22.5635 1.66896 22.139 1.66896 21.6963V15.855Z" fill="#30A85F"/>
</svg>
