<svg width="56" height="55" viewBox="0 0 56 55" fill="none" xmlns="http://www.w3.org/2000/svg">
<path fill-rule="evenodd" clip-rule="evenodd" d="M42.8568 11.19L40.5002 3.33333C40.5002 1.49167 35.5202 0 30.5002 0C25.4802 0 20.5002 1.49167 20.5002 3.33333L18.1435 11.19C12.5168 12.3933 8.8335 14.3983 8.8335 16.6667C8.8335 20.35 18.5335 23.3333 30.5002 23.3333C42.4668 23.3333 52.1668 20.35 52.1668 16.6667C52.1668 14.3983 48.4835 12.3933 42.8568 11.19ZM37.3868 4.55667C37.0565 4.39238 36.7131 4.2558 36.3602 4.14833C34.8718 3.67 32.7252 3.33333 30.5002 3.33333C28.2752 3.33333 26.1285 3.67 24.6402 4.15C24.1702 4.3 23.8352 4.44333 23.6135 4.55667L22.3952 8.61833C22.7218 8.66389 23.0924 8.71167 23.5068 8.76167C28.5264 9.3447 33.5992 9.29654 38.6068 8.61833L37.3868 4.55667ZM39.5735 11.8467C39.0108 11.9307 38.4469 12.0057 37.8818 12.0717C32.9773 12.6427 28.023 12.6427 23.1185 12.0717C22.5534 12.006 21.9894 11.931 21.4268 11.8467L20.7685 14.0367L18.8402 14.45C16.2002 15.0133 14.2468 15.7233 13.0402 16.4167C12.9039 16.4953 12.7705 16.5786 12.6402 16.6667C13.3402 17.1383 14.4952 17.6833 16.1602 18.195C19.6835 19.2783 24.7535 20 30.5002 20C36.2468 20 41.3168 19.2783 44.8402 18.195C46.5052 17.6833 47.6602 17.1383 48.3602 16.665C48.2298 16.5781 48.0964 16.4958 47.9602 16.4183C46.7535 15.7233 44.8002 15.0133 42.1602 14.45L40.2318 14.0367L39.5735 11.8467ZM12.0502 16.1633L12.0668 16.19C12.0546 16.1733 12.0491 16.1644 12.0502 16.1633ZM12.0635 17.155L12.0752 17.1367L12.0718 17.1433L12.0635 17.155ZM23.3002 4.74667L23.2802 4.76333L23.3068 4.74L23.3002 4.74667ZM37.6968 4.74L37.7252 4.76333C37.7229 4.76333 37.7135 4.75556 37.6968 4.74Z" fill="#30A85F"/>
<path d="M17.1704 21.9229C17.238 25.4137 18.6722 28.7388 21.1649 31.1836C23.6575 33.6284 27.0097 34.998 30.5012 34.998C33.9927 34.998 37.3449 33.6284 39.8376 31.1836C42.3303 28.7388 43.7645 25.4137 43.8321 21.9229C42.7165 22.188 41.5913 22.4104 40.4587 22.5895C40.2313 25.0734 39.0838 27.3827 37.2414 29.064C35.399 30.7454 32.9947 31.6776 30.5004 31.6776C28.0061 31.6776 25.6019 30.7454 23.7595 29.064C21.9171 27.3827 20.7695 25.0734 20.5421 22.5895C19.4101 22.4103 18.2854 22.1879 17.1704 21.9229Z" fill="#30A85F"/>
<path fill-rule="evenodd" clip-rule="evenodd" d="M13.5503 59.9997C13.7336 59.478 13.8336 58.9163 13.8336 58.333V56.6663H47.167V51.6663H41.0836L40.7886 51.7647C40.2286 51.9447 39.4386 52.1797 38.4536 52.4113C35.8465 53.0218 33.1779 53.331 30.5003 53.333C27.2703 53.333 24.5103 52.873 22.5486 52.4113C21.6605 52.2031 20.7824 51.9546 19.917 51.6663H16.0286C17.3166 50.8123 18.3891 49.6713 19.162 48.333H20.5003V39.023C23.8155 38.5798 27.1556 38.3493 30.5003 38.333C40.5136 38.333 60.5003 40.9713 60.5003 49.9997V59.9997H13.5503ZM55.2253 47.038C56.7536 48.1797 57.167 49.1563 57.167 49.9997V56.6663H50.5003V49.9997C50.5003 49.5576 50.3247 49.1337 50.0121 48.8212C49.6996 48.5086 49.2757 48.333 48.8336 48.333V44.1313C51.5536 44.948 53.7486 45.9347 55.2253 47.038ZM40.5003 42.388C42.172 42.618 43.862 42.9113 45.5003 43.2713V48.333H40.5003V42.388ZM30.5003 41.6663C32.7264 41.6762 34.951 41.7874 37.167 41.9997V49.283C34.9764 49.7572 32.7416 49.9974 30.5003 49.9997C28.259 49.9974 26.0242 49.7572 23.8336 49.283V41.9997C26.2786 41.7697 28.5803 41.6663 30.5003 41.6663Z" fill="#30A85F"/>
<path d="M3.83333 31.6667C3.83333 31.2246 3.65774 30.8007 3.34518 30.4882C3.03262 30.1756 2.60869 30 2.16667 30C1.72464 30 1.30072 30.1756 0.988156 30.4882C0.675595 30.8007 0.5 31.2246 0.5 31.6667V43.3333C0.5 45.1014 1.20238 46.7971 2.45262 48.0474C3.70286 49.2976 5.39856 50 7.16667 50V58.3333C7.16667 58.7754 7.34226 59.1993 7.65482 59.5118C7.96738 59.8244 8.39131 60 8.83333 60C9.27536 60 9.69928 59.8244 10.0118 59.5118C10.3244 59.1993 10.5 58.7754 10.5 58.3333V50C12.2681 50 13.9638 49.2976 15.214 48.0474C16.4643 46.7971 17.1667 45.1014 17.1667 43.3333V31.6667C17.1667 31.2246 16.9911 30.8007 16.6785 30.4882C16.3659 30.1756 15.942 30 15.5 30C15.058 30 14.634 30.1756 14.3215 30.4882C14.0089 30.8007 13.8333 31.2246 13.8333 31.6667V43.3333C13.8333 44.2174 13.4821 45.0652 12.857 45.6904C12.2319 46.3155 11.3841 46.6667 10.5 46.6667V31.6667C10.5 31.2246 10.3244 30.8007 10.0118 30.4882C9.69928 30.1756 9.27536 30 8.83333 30C8.39131 30 7.96738 30.1756 7.65482 30.4882C7.34226 30.8007 7.16667 31.2246 7.16667 31.6667V46.6667C6.28261 46.6667 5.43477 46.3155 4.80964 45.6904C4.18452 45.0652 3.83333 44.2174 3.83333 43.3333V31.6667Z" fill="#30A85F"/>
</svg>
