<svg width="31" height="31" viewBox="0 0 31 31" fill="none" xmlns="http://www.w3.org/2000/svg">
<path fill-rule="evenodd" clip-rule="evenodd" d="M29.95 1.26917L29.1275 1.13833L28.9116 0.333333L30.1525 0L29.95 1.26917ZM18.9333 12.7942L18.2241 13.2308L18.2225 13.2292L18.22 13.225L18.2116 13.2117L18.1833 13.1642L18.0833 12.9917C17.9667 12.7876 17.8541 12.5811 17.7458 12.3725C17.4028 11.7167 17.1038 11.0388 16.8508 10.3433C16.5691 9.55667 16.3275 8.65583 16.29 7.78417C16.2533 6.91583 16.415 5.97333 17.0616 5.23417C17.6425 4.57083 18.7375 3.96 19.8883 3.43167C21.0808 2.8825 22.4841 2.35583 23.8133 1.9C25.4597 1.33784 27.1227 0.825388 28.8 0.363333L28.8833 0.34L28.9125 0.331666L29.1291 1.1375L29.9516 1.26833L29.9466 1.29917L29.9325 1.3875C29.8493 1.89874 29.7621 2.40931 29.6708 2.91917C29.4488 4.173 29.2065 5.42316 28.9441 6.66917C28.6475 8.07 28.3025 9.53833 27.9366 10.7675C27.7737 11.3295 27.5826 11.883 27.3641 12.4258C27.1741 12.8842 26.9491 13.3292 26.6758 13.6425C26.0908 14.3108 25.18 14.52 24.3841 14.5733C23.5541 14.6292 22.6341 14.5283 21.8066 14.3817C21.0686 14.2488 20.3377 14.0792 19.6166 13.8733C19.3216 13.7902 19.0282 13.7013 18.7366 13.6067L18.6841 13.5883L18.67 13.5833L18.6658 13.5825H18.6641L18.9333 12.7942ZM18.9333 12.7942L18.2241 13.2308L18.3808 13.485L18.6641 13.5825L18.9333 12.7942ZM19.4933 12.1C20.3467 12.3654 21.2152 12.5796 22.0941 12.7417C22.8641 12.8775 23.6341 12.9542 24.2725 12.9108C24.9466 12.8658 25.285 12.7008 25.4208 12.5458C25.5075 12.4458 25.6491 12.2092 25.8241 11.7875C26.0203 11.2983 26.1919 10.7996 26.3383 10.2933C26.6858 9.12667 27.02 7.7075 27.3133 6.325C27.5948 4.98745 27.8526 3.64501 28.0866 2.29833L27.8291 2.37333C26.905 2.64583 25.6566 3.03 24.3541 3.47667C23.0491 3.92417 21.705 4.43 20.5841 4.94583C19.4208 5.48083 18.6358 5.96667 18.3158 6.3325C18.06 6.62417 17.9283 7.07333 17.9558 7.7125C17.9825 8.34833 18.165 9.07083 18.42 9.78C18.7111 10.5825 19.0702 11.3586 19.4933 12.1ZM3.55248 3.36667L3.33665 4.17167L2.51331 4.3025L2.31165 3.03417L3.55248 3.36667ZM11.6208 13.6442L12.33 14.08L12.3316 14.0783L12.3333 14.075L12.34 14.0642L12.3641 14.0242L12.4475 13.8825C12.846 13.1866 13.1847 12.4582 13.46 11.705C13.6916 11.0583 13.8933 10.3092 13.9241 9.57917C13.9558 8.85167 13.8208 8.04 13.2591 7.39833C12.7625 6.83 11.8433 6.32333 10.91 5.89333C9.93414 5.44417 8.78831 5.01417 7.70581 4.64333C6.36501 4.18587 5.01079 3.76874 3.64498 3.3925L3.57665 3.37333L3.55248 3.36667L3.33665 4.17167L2.51331 4.3025L2.51748 4.3275L2.52915 4.4L2.57415 4.67167C2.79894 6.01962 3.05205 7.36269 3.33331 8.7C3.57498 9.84 3.85665 11.0375 4.15498 12.0417C4.30498 12.5433 4.46165 13.0108 4.62581 13.405C4.78165 13.78 4.97248 14.1625 5.21248 14.4358C5.72915 15.0275 6.52331 15.2025 7.18081 15.2458C7.87415 15.2925 8.63498 15.2083 9.31415 15.0892C10.167 14.9367 11.008 14.7239 11.8308 14.4525L11.8733 14.4383L11.8858 14.4342L11.89 14.4325L11.6208 13.6442ZM11.6208 13.6442L12.33 14.08L12.1733 14.335L11.89 14.4325L11.6208 13.6442ZM11.06 12.9492C11.1128 12.8547 11.1744 12.74 11.245 12.605C11.4433 12.2233 11.69 11.7033 11.8908 11.1417C12.095 10.5733 12.2383 10.0025 12.2591 9.50833C12.2808 9.00917 12.1758 8.69167 12.005 8.495C11.7691 8.22667 11.1608 7.84333 10.2133 7.4075C9.30998 6.99167 8.22331 6.5825 7.16498 6.22C6.24306 5.90518 5.31451 5.61011 4.37998 5.335L4.38331 5.35583C4.52498 6.15583 4.72665 7.23583 4.96415 8.355C5.20165 9.47667 5.47248 10.6242 5.75248 11.5667C5.89331 12.0383 6.03165 12.4458 6.16498 12.7658C6.30665 13.105 6.41331 13.2775 6.46665 13.3392C6.53498 13.4167 6.75581 13.5475 7.29248 13.5833C7.79331 13.6167 8.40498 13.5567 9.02498 13.4475C9.71311 13.324 10.3928 13.1581 11.06 12.9492ZM9.23498 20.8933C9.02331 20.905 8.91998 20.935 8.89331 20.9467C8.51581 21.1175 7.36914 21.5175 6.37915 21.855C5.87081 22.0292 5.38331 22.1925 5.02331 22.3133L4.99998 22.3217V26.8242C5.14665 26.8175 5.30414 26.8117 5.46498 26.8058C6.15498 26.7808 6.97581 26.7558 7.33165 26.7708C8.82498 26.83 9.94664 27.1833 10.985 27.5108L11.0075 27.5183C11.9808 27.825 12.8825 28.1067 14.0633 28.1958C14.3966 28.2208 14.7208 28.2533 15.0233 28.2833H15.0275C16.1891 28.4 16.9541 28.4583 17.5466 28.2433C18.0075 28.0758 19.695 27.2933 21.3966 26.4375C22.2383 26.0142 23.0633 25.5833 23.7191 25.2142C24.0483 25.0292 24.3275 24.8642 24.5416 24.7258C24.6478 24.6569 24.7333 24.5986 24.7983 24.5508L24.8733 24.4925L24.8966 24.4725C24.98 24.3883 25.0683 24.095 24.925 23.8192C24.8575 23.6902 24.7461 23.5896 24.6108 23.5358C24.4441 23.4633 24.1608 23.4075 23.7108 23.4817C22.6958 23.6483 21.4833 24.1367 20.2725 24.6292L20.2558 24.6367C19.6608 24.8783 19.0641 25.1208 18.535 25.2975C18.0266 25.4667 17.4625 25.6183 16.9708 25.5892C16.2958 25.5475 15.1116 25.3725 14.135 25.2142C13.5737 25.1234 13.0131 25.0284 12.4533 24.9292L12.345 24.91L12.3066 24.9025L12.465 23.2492L16.2733 23.295H16.2816C16.3261 23.2902 16.3702 23.2819 16.4133 23.27C16.545 23.2367 16.7708 23.1542 17.055 22.9533C17.1425 22.8908 17.2575 22.7758 17.365 22.6217C17.4094 22.5572 17.4472 22.4944 17.4783 22.4333C17.014 22.4034 16.5527 22.3383 16.0983 22.2383C15.8509 22.1845 15.6055 22.1219 15.3625 22.0508L15.3341 22.0425L10.67 21.0042L10.6258 20.9967L10.4508 20.97C10.2602 20.942 10.0687 20.9206 9.87664 20.9058C9.66324 20.8879 9.44892 20.8838 9.23498 20.8933ZM10.8333 20.1883L10.9841 19.3692L10.9991 19.3717L15.7641 20.4317L15.7991 20.4425L15.8058 20.445L15.8375 20.4542L15.9691 20.4917C16.085 20.5233 16.2516 20.5667 16.45 20.61C16.855 20.6975 17.3616 20.7783 17.83 20.7783C18.2991 20.7783 18.8091 20.9533 19.0841 21.4517C19.3191 21.8783 19.2608 22.34 19.1783 22.645C19.1016 22.9146 18.9874 23.1721 18.8391 23.41C19.093 23.31 19.3614 23.2022 19.6441 23.0867L19.6958 23.065C20.8441 22.5983 22.2208 22.0383 23.44 21.8375C24.8566 21.6058 25.9191 22.1142 26.405 23.0542C26.8333 23.8833 26.7383 24.9767 26.0841 25.6417C25.92 25.8083 25.6758 25.9775 25.4425 26.1283C25.1453 26.3163 24.8429 26.4961 24.5358 26.6675C23.8483 27.0542 22.9975 27.4983 22.1441 27.9275C20.4591 28.775 18.6841 29.6042 18.1141 29.8108C17.1258 30.1692 15.9825 30.055 14.9666 29.9533L14.8608 29.9425C14.5534 29.911 14.2456 29.8832 13.9375 29.8592C12.5541 29.7542 11.4941 29.42 10.5258 29.115L10.505 29.1083C9.46331 28.78 8.52498 28.4875 7.26498 28.4367C6.98831 28.4258 6.24331 28.4458 5.52498 28.4725C5.12047 28.4872 4.71602 28.5036 4.31165 28.5217L4.20415 28.5267L3.33248 28.5667V21.12L4.06331 20.8775C4.65633 20.6804 5.24856 20.481 5.83998 20.2792C6.87665 19.925 7.92164 19.5575 8.20665 19.4292C8.51248 19.2908 8.85998 19.2458 9.13831 19.2292C9.43414 19.2125 9.73831 19.225 10.0041 19.245C10.3241 19.2706 10.6427 19.3103 10.9591 19.3642L10.9766 19.3675H10.9816L10.9833 19.3683H10.985L10.8333 20.1883Z" fill="#30A85F"/>
<path fill-rule="evenodd" clip-rule="evenodd" d="M24.2917 6.08812C24.3748 6.15925 24.4432 6.24606 24.4928 6.34361C24.5424 6.44115 24.5724 6.54752 24.5809 6.65663C24.5894 6.76574 24.5763 6.87546 24.5424 6.97952C24.5085 7.08358 24.4545 7.17995 24.3833 7.26312C21.8992 10.1614 18.8067 14.4089 17.4417 17.8614C17.4014 17.9632 17.3415 18.0561 17.2653 18.1347C17.1892 18.2133 17.0983 18.2761 16.9978 18.3196C16.8974 18.3631 16.7894 18.3864 16.6799 18.3881C16.5705 18.3899 16.4618 18.3701 16.36 18.3298C16.2582 18.2895 16.1654 18.2296 16.0868 18.1534C16.0081 18.0773 15.9453 17.9864 15.9018 17.8859C15.8583 17.7855 15.835 17.6775 15.8333 17.568C15.8316 17.4586 15.8514 17.3499 15.8917 17.2481C17.3608 13.5323 20.6008 9.11478 23.1167 6.17895C23.2606 6.01121 23.4652 5.9075 23.6855 5.89062C23.9059 5.87374 24.1239 5.94508 24.2917 6.08895M7.81667 8.76145C7.73073 8.82928 7.659 8.91338 7.60558 9.00894C7.55216 9.1045 7.51809 9.20964 7.50532 9.31838C7.49255 9.42711 7.50133 9.53729 7.53116 9.64263C7.56099 9.74796 7.61128 9.84639 7.67917 9.93228C9.5475 12.3031 11.5875 15.3373 12.5558 17.8539C12.639 18.0548 12.7973 18.2152 12.9971 18.301C13.1968 18.3868 13.4222 18.3911 13.6251 18.313C13.828 18.2349 13.9923 18.0807 14.0831 17.8831C14.1738 17.6856 14.1838 17.4604 14.1108 17.2556C13.0517 14.5023 10.8875 11.3098 8.9875 8.90062C8.85077 8.72705 8.65072 8.61489 8.43131 8.58879C8.21191 8.5627 7.99029 8.6248 7.81667 8.76145Z" fill="#30A85F"/>
<path d="M0 19.2217H5V30.055H0V19.2217Z" fill="#30A85F"/>
</svg>
