<svg width="22" height="22" viewBox="0 0 22 22" fill="none" xmlns="http://www.w3.org/2000/svg">
<path d="M5.30354 2.35547C4.5221 2.35547 3.77267 2.6659 3.22011 3.21846C2.66754 3.77102 2.35712 4.52046 2.35712 5.3019V16.6948C2.35712 17.4762 2.66754 18.2256 3.22011 18.7782C3.77267 19.3308 4.5221 19.6412 5.30354 19.6412H16.6964C17.4778 19.6412 18.2273 19.3308 18.7798 18.7782C19.3324 18.2256 19.6428 17.4762 19.6428 16.6948V5.3019C19.6428 4.52046 19.3324 3.77102 18.7798 3.21846C18.2273 2.6659 17.4778 2.35547 16.6964 2.35547H5.30354ZM3.53569 5.3019C3.53569 4.83303 3.72194 4.38337 4.05348 4.05183C4.38502 3.7203 4.83468 3.53404 5.30354 3.53404H16.6964C17.1653 3.53404 17.6149 3.7203 17.9465 4.05183C18.278 4.38337 18.4643 4.83303 18.4643 5.3019V16.6948C18.4643 17.1636 18.278 17.6133 17.9465 17.9448C17.6149 18.2764 17.1653 18.4626 16.6964 18.4626H5.30354C4.83468 18.4626 4.38502 18.2764 4.05348 17.9448C3.72194 17.6133 3.53569 17.1636 3.53569 16.6948V5.3019ZM4.71426 7.06975C4.71426 6.65299 4.87982 6.25329 5.17452 5.95859C5.46922 5.66389 5.86892 5.49833 6.28569 5.49833H15.7143C16.131 5.49833 16.5307 5.66389 16.8254 5.95859C17.1201 6.25329 17.2857 6.65299 17.2857 7.06975V8.64118C17.2857 9.05795 17.1201 9.45765 16.8254 9.75235C16.5307 10.047 16.131 10.2126 15.7143 10.2126H6.28569C5.86892 10.2126 5.46922 10.047 5.17452 9.75235C4.87982 9.45765 4.71426 9.05795 4.71426 8.64118V7.06975ZM6.28569 6.6769C6.1815 6.6769 6.08157 6.71829 6.0079 6.79196C5.93422 6.86564 5.89283 6.96556 5.89283 7.06975V8.64118C5.89283 8.74537 5.93422 8.8453 6.0079 8.91897C6.08157 8.99265 6.1815 9.03404 6.28569 9.03404H15.7143C15.8184 9.03404 15.9184 8.99265 15.9921 8.91897C16.0657 8.8453 16.1071 8.74537 16.1071 8.64118V7.06975C16.1071 6.96556 16.0657 6.86564 15.9921 6.79196C15.9184 6.71829 15.8184 6.6769 15.7143 6.6769H6.28569ZM4.71426 12.3733C4.71426 12.217 4.77634 12.0672 4.88686 11.9566C4.99737 11.8461 5.14726 11.784 5.30354 11.784H9.62497C9.78126 11.784 9.93115 11.8461 10.0417 11.9566C10.1522 12.0672 10.2143 12.217 10.2143 12.3733C10.2143 12.5296 10.1522 12.6795 10.0417 12.79C9.93115 12.9005 9.78126 12.9626 9.62497 12.9626H5.30354C5.14726 12.9626 4.99737 12.9005 4.88686 12.79C4.77634 12.6795 4.71426 12.5296 4.71426 12.3733ZM5.30354 14.7305C5.14726 14.7305 4.99737 14.7926 4.88686 14.9031C4.77634 15.0136 4.71426 15.1635 4.71426 15.3198C4.71426 15.476 4.77634 15.6259 4.88686 15.7364C4.99737 15.847 5.14726 15.909 5.30354 15.909H9.62497C9.78126 15.909 9.93115 15.847 10.0417 15.7364C10.1522 15.6259 10.2143 15.476 10.2143 15.3198C10.2143 15.1635 10.1522 15.0136 10.0417 14.9031C9.93115 14.7926 9.78126 14.7305 9.62497 14.7305H5.30354ZM12.1785 12.7662C12.1785 12.0072 12.7945 11.3912 13.5535 11.3912H15.9107C16.6697 11.3912 17.2857 12.0072 17.2857 12.7662V15.1233C17.2857 15.488 17.1408 15.8377 16.883 16.0956C16.6251 16.3535 16.2754 16.4983 15.9107 16.4983H13.5535C13.1889 16.4983 12.8391 16.3535 12.5813 16.0956C12.3234 15.8377 12.1785 15.488 12.1785 15.1233V12.7662ZM13.5535 12.5698C13.5014 12.5698 13.4515 12.5904 13.4146 12.6273C13.3778 12.6641 13.3571 12.7141 13.3571 12.7662V15.1233C13.3571 15.2318 13.4451 15.3198 13.5535 15.3198H15.9107C15.9628 15.3198 16.0127 15.2991 16.0496 15.2622C16.0864 15.2254 16.1071 15.1754 16.1071 15.1233V12.7662C16.1071 12.7141 16.0864 12.6641 16.0496 12.6273C16.0127 12.5904 15.9628 12.5698 15.9107 12.5698H13.5535Z" fill="currentColor"/>
</svg>
