<svg width="20" height="20" viewBox="0 0 20 20" fill="none" xmlns="http://www.w3.org/2000/svg">
<path fill-rule="evenodd" clip-rule="evenodd" d="M2.5 2.5H15.4167V4.58333H14.5833V3.33333H3.33333V12.9167H12.2446V13.75H2.5V2.5ZM15 7.91667C15.3315 7.91667 15.6495 7.78497 15.8839 7.55055C16.1183 7.31613 16.25 6.99819 16.25 6.66667C16.25 6.33515 16.1183 6.0172 15.8839 5.78278C15.6495 5.54836 15.3315 5.41667 15 5.41667C14.6685 5.41667 14.3505 5.54836 14.1161 5.78278C13.8817 6.0172 13.75 6.33515 13.75 6.66667C13.75 6.99819 13.8817 7.31613 14.1161 7.55055C14.3505 7.78497 14.6685 7.91667 15 7.91667ZM15.8462 8.75417C16.3875 8.75417 16.8158 8.9975 17.0962 9.37333C17.3583 9.72542 17.4692 10.1608 17.4942 10.5629C17.5189 10.9754 17.4627 11.3887 17.3287 11.7796C17.2037 12.1421 16.9925 12.5171 16.6667 12.7742V16.875C16.667 17.032 16.6081 17.1834 16.5019 17.2991C16.3957 17.4147 16.2498 17.4861 16.0933 17.4991C15.9368 17.512 15.7812 17.4656 15.6573 17.3691C15.5335 17.2725 15.4506 17.1329 15.425 16.9779L14.8875 13.75H14.7633L14.1558 16.99C14.127 17.1429 14.0421 17.2796 13.9179 17.3732C13.7936 17.4669 13.6389 17.5108 13.4839 17.4965C13.329 17.4821 13.185 17.4104 13.08 17.2955C12.9751 17.1806 12.9169 17.0306 12.9167 16.875V10.9304C12.8333 11.0573 12.7511 11.185 12.67 11.3133L12.6375 11.3646L12.6292 11.3779L12.6271 11.3817C12.5709 11.4718 12.4927 11.5462 12.3998 11.5977C12.307 11.6493 12.2025 11.6763 12.0962 11.6763H10.0129C9.84716 11.6763 9.68818 11.6104 9.57097 11.4932C9.45376 11.376 9.38792 11.217 9.38792 11.0513C9.38792 10.8855 9.45376 10.7265 9.57097 10.6093C9.68818 10.4921 9.84716 10.4263 10.0129 10.4263H11.7533C11.8546 10.2696 11.9879 10.0663 12.1279 9.86208C12.2737 9.64917 12.4346 9.42375 12.5779 9.24708C12.6475 9.16083 12.7254 9.07083 12.8037 8.99708C12.8421 8.96083 12.8954 8.91375 12.9604 8.87208C13.0749 8.79635 13.209 8.75553 13.3462 8.75458L15.8462 8.75417Z" fill="currentColor"/>
</svg>
