<svg width="14" height="14" viewBox="0 0 14 14" fill="none" xmlns="http://www.w3.org/2000/svg">
<path d="M4.99984 12.6106V7.94392C4.99984 7.57573 5.29831 7.27725 5.6665 7.27725H8.33317C8.70136 7.27725 8.99984 7.57573 8.99984 7.94392V12.6106M1.6665 11.2773V6.2379C1.6665 5.43808 2.02551 4.68049 2.64454 4.17401L6.15552 1.30139C6.64667 0.899537 7.353 0.899536 7.84415 1.30139L11.3551 4.17401C11.9742 4.68049 12.3332 5.43808 12.3332 6.2379V11.2773C12.3332 12.0136 11.7362 12.6106 10.9998 12.6106H9.6665H4.33317H2.99984C2.26346 12.6106 1.6665 12.0136 1.6665 11.2773Z" stroke="#5F6D7E" stroke-width="1.5" stroke-linecap="round"/>
</svg>
