<svg width="22" height="22" viewBox="0 0 22 22" fill="none" xmlns="http://www.w3.org/2000/svg">
<path d="M9.62498 7.33333H16.9583M9.62498 11H11.9166M16.9583 11H14.6666M9.62498 14.6667H11.9166M16.9583 14.6667H14.6666M6.41665 6.875H5.49998C3.77115 6.875 2.90765 6.875 2.37048 7.41217C1.83331 7.94933 1.83331 8.81283 1.83331 10.5417V16.5C1.83331 17.1078 2.07476 17.6907 2.50453 18.1205C2.9343 18.5502 3.51719 18.7917 4.12498 18.7917C4.73277 18.7917 5.31566 18.5502 5.74543 18.1205C6.1752 17.6907 6.41665 17.1078 6.41665 16.5V6.875Z" stroke="currentColor" stroke-width="1.375" stroke-linecap="round" stroke-linejoin="round"/>
<path d="M14.6667 3.20703H10.0833C9.23083 3.20703 8.80458 3.20703 8.45533 3.30053C7.98887 3.42543 7.56351 3.67095 7.22205 4.01242C6.88059 4.35388 6.63506 4.77923 6.51017 5.2457C6.41667 5.59495 6.41667 6.0212 6.41667 6.8737V16.4987C6.41667 16.7996 6.35739 17.0976 6.24222 17.3757C6.12706 17.6537 5.95825 17.9064 5.74545 18.1192C5.53265 18.332 5.28002 18.5008 5.00198 18.6159C4.72394 18.7311 4.42595 18.7904 4.125 18.7904H14.6667C17.259 18.7904 18.5561 18.7904 19.3609 17.9846C20.1667 17.1798 20.1667 15.8827 20.1667 13.2904V8.70703C20.1667 6.1147 20.1667 4.81761 19.3609 4.01278C18.5561 3.20703 17.259 3.20703 14.6667 3.20703Z" stroke="currentColor" stroke-width="1.375" stroke-linecap="round" stroke-linejoin="round"/>
</svg>
