<svg width="14" height="17" viewBox="0 0 14 17" fill="none" xmlns="http://www.w3.org/2000/svg">
<path fill-rule="evenodd" clip-rule="evenodd" d="M1 7.354C1 11.52 6.04 15.5 7 15.5C7.96 15.5 13 11.52 13 7.354C13 4.121 10.314 1.5 7 1.5C3.686 1.5 1 4.12 1 7.354Z" stroke="#131517" stroke-opacity="0.36" stroke-width="1.5" stroke-linecap="round" stroke-linejoin="round"/>
<path fill-rule="evenodd" clip-rule="evenodd" d="M8.5 7C8.5 7.39782 8.34196 7.77936 8.06066 8.06066C7.77936 8.34196 7.39782 8.5 7 8.5C6.60218 8.5 6.22064 8.34196 5.93934 8.06066C5.65804 7.77936 5.5 7.39782 5.5 7C5.5 6.60218 5.65804 6.22064 5.93934 5.93934C6.22064 5.65804 6.60218 5.5 7 5.5C7.39782 5.5 7.77936 5.65804 8.06066 5.93934C8.34196 6.22064 8.5 6.60218 8.5 7Z" stroke="#131517" stroke-opacity="0.36" stroke-width="1.5" stroke-linecap="round" stroke-linejoin="round"/>
</svg>
