<svg width="18" height="21" viewBox="0 0 18 21" fill="none" xmlns="http://www.w3.org/2000/svg">
<path fill-rule="evenodd" clip-rule="evenodd" d="M3.76587 9C3.76587 7.74022 4.26631 6.53204 5.15711 5.64124C6.04791 4.75045 7.25609 4.25 8.51587 4.25C9.77565 4.25 10.9838 4.75045 11.8746 5.64124C12.7654 6.53204 13.2659 7.74022 13.2659 9C13.2659 10.2598 12.7654 11.468 11.8746 12.3588C10.9838 13.2496 9.77565 13.75 8.51587 13.75C7.25609 13.75 6.04791 13.2496 5.15711 12.3588C4.26631 11.468 3.76587 10.2598 3.76587 9ZM8.51587 5.75C7.65392 5.75 6.82727 6.09241 6.21777 6.7019C5.60828 7.3114 5.26587 8.13805 5.26587 9C5.26587 9.86195 5.60828 10.6886 6.21777 11.2981C6.82727 11.9076 7.65392 12.25 8.51587 12.25C9.37782 12.25 10.2045 11.9076 10.814 11.2981C11.4235 10.6886 11.7659 9.86195 11.7659 9C11.7659 8.13805 11.4235 7.3114 10.814 6.7019C10.2045 6.09241 9.37782 5.75 8.51587 5.75Z" fill="#111111"/>
<path fill-rule="evenodd" clip-rule="evenodd" d="M0.0396352 7.85749C0.210562 5.78429 1.15486 3.85118 2.68505 2.44196C4.21524 1.03274 6.2194 0.250482 8.29964 0.250488H8.73164C10.8119 0.250482 12.816 1.03274 14.3462 2.44196C15.8764 3.85118 16.8207 5.78429 16.9916 7.85749C17.1818 10.1668 16.4684 12.4598 15.0016 14.2535L10.2086 20.1145C10.0035 20.3653 9.74522 20.5674 9.45243 20.7062C9.15964 20.845 8.83966 20.917 8.51564 20.917C8.19161 20.917 7.87163 20.845 7.57884 20.7062C7.28605 20.5674 7.02776 20.3653 6.82264 20.1145L2.02964 14.2535C0.562751 12.4598 -0.150679 10.1668 0.0396352 7.85749ZM8.29964 1.75049C6.59612 1.75075 4.95497 2.39152 3.70196 3.54561C2.44894 4.6997 1.67567 6.28274 1.53564 7.98049C1.37724 9.90235 1.97092 11.8107 3.19164 13.3035L7.98463 19.1655C8.04907 19.2443 8.13023 19.3079 8.22223 19.3515C8.31424 19.3952 8.4148 19.4178 8.51664 19.4178C8.61847 19.4178 8.71903 19.3952 8.81104 19.3515C8.90305 19.3079 8.9842 19.2443 9.04864 19.1655L13.8416 13.3035C15.0616 11.8104 15.6546 9.90208 15.4956 7.98049C15.3556 6.28256 14.5822 4.69939 13.3289 3.54527C12.0757 2.39115 10.4343 1.75049 8.73064 1.75049H8.29964Z" fill="#111111"/>
</svg>
