<svg width="20" height="17" viewBox="0 0 20 17" fill="none" xmlns="http://www.w3.org/2000/svg">
<path d="M2 16.3013C1.45 16.3013 0.979333 16.1056 0.588 15.7143C0.196667 15.3229 0.000666667 14.8519 0 14.3013V2.30127C0 1.75127 0.196 1.2806 0.588 0.889269C0.98 0.497936 1.45067 0.301936 2 0.30127H18C18.55 0.30127 19.021 0.497269 19.413 0.889269C19.805 1.28127 20.0007 1.75194 20 2.30127V14.3013C20 14.8513 19.8043 15.3223 19.413 15.7143C19.0217 16.1063 18.5507 16.3019 18 16.3013H2ZM10 9.30127L18 4.30127V2.30127L10 7.30127L2 2.30127V4.30127L10 9.30127Z" fill="white"/>
</svg>
