<svg width="20" height="20" viewBox="0 0 20 20" fill="none" xmlns="http://www.w3.org/2000/svg">
<path d="M14.1668 9.99883V14.1656M10.8332 14.1656V12.4988M2.5 12.4988L4.8584 10.1404M6.6668 5.83203C6.00376 5.83203 5.36787 6.09542 4.89903 6.56426C4.43019 7.0331 4.1668 7.66899 4.1668 8.33203C4.1668 8.99507 4.43019 9.63096 4.89903 10.0998C5.36787 10.5686 6.00376 10.832 6.6668 10.832C7.32984 10.832 7.96573 10.5686 8.43457 10.0998C8.90341 9.63096 9.1668 8.99507 9.1668 8.33203C9.1668 7.66899 8.90341 7.0331 8.43457 6.56426C7.96573 6.09542 7.32984 5.83203 6.6668 5.83203Z" stroke="currentColor" stroke-width="0.88" stroke-linecap="round" stroke-linejoin="round"/>
<path d="M6.66679 2.5H16.6668C16.8878 2.5 17.0997 2.58778 17.256 2.74404C17.4122 2.90029 17.5 3.11222 17.5 3.3332V16.6668C17.5 16.8878 17.4122 17.0997 17.256 17.256C17.0997 17.4122 16.8878 17.5 16.6668 17.5H6.66679C6.55734 17.5001 6.44895 17.4785 6.34782 17.4367C6.24668 17.3948 6.15478 17.3335 6.07737 17.2561C5.99996 17.1787 5.93855 17.0869 5.89665 16.9857C5.85476 16.8846 5.83319 16.7763 5.83319 16.6668V14.1668" stroke="currentColor" stroke-width="0.88" stroke-linecap="round" stroke-linejoin="round"/>
</svg>
