<svg width="20" height="20" viewBox="0 0 20 20" fill="none" xmlns="http://www.w3.org/2000/svg">
<path d="M3.01329 17.4987C2.64274 17.4987 2.32579 17.3668 2.06246 17.1029C1.79913 16.839 1.66718 16.5226 1.66663 16.1537V5.5112C1.66663 5.1412 1.79857 4.82453 2.06246 4.5612C2.32635 4.29786 2.64274 4.16592 3.01163 4.16536H9.16663C9.28496 4.16536 9.38385 4.20536 9.46329 4.28536C9.54274 4.36536 9.58274 4.46453 9.58329 4.58286C9.58385 4.7012 9.54385 4.80009 9.46329 4.87953C9.38274 4.95898 9.28385 4.9987 9.16663 4.9987H3.01329C2.86329 4.9987 2.74024 5.04675 2.64413 5.14286C2.54802 5.23898 2.49996 5.36203 2.49996 5.51203V16.1529C2.49996 16.3023 2.54802 16.4251 2.64413 16.5212C2.74024 16.6173 2.86329 16.6654 3.01329 16.6654H13.6541C13.8036 16.6654 13.9263 16.6173 14.0225 16.5212C14.1186 16.4251 14.1666 16.302 14.1666 16.152V11.6654C14.1666 11.547 14.2066 11.4481 14.2866 11.3687C14.3666 11.2893 14.4658 11.2493 14.5841 11.2487C14.7025 11.2481 14.8013 11.2881 14.8808 11.3687C14.9602 11.4493 15 11.5481 15 11.6654V16.1529C15 16.5229 14.868 16.8395 14.6041 17.1029C14.3402 17.3662 14.0236 17.4981 13.6541 17.4987H3.01329ZM5.19163 9.58203C5.07329 9.58203 4.9744 9.62203 4.89496 9.70203C4.81552 9.78203 4.77579 9.88092 4.77579 9.9987V14.1654C4.77579 14.2837 4.81579 14.3826 4.89579 14.462C4.97579 14.5415 5.07496 14.5815 5.19329 14.582C5.31163 14.5826 5.41052 14.5426 5.48996 14.462C5.5694 14.3815 5.60885 14.2826 5.60829 14.1654V9.9987C5.60829 9.88036 5.56829 9.78148 5.48829 9.70203C5.40829 9.62203 5.30996 9.58203 5.19163 9.58203ZM8.33246 7.08203C8.21357 7.08203 8.1144 7.12203 8.03496 7.20203C7.95552 7.28203 7.91607 7.38092 7.91663 7.4987V14.1654C7.91663 14.2837 7.95663 14.3826 8.03663 14.462C8.11663 14.5415 8.21579 14.5815 8.33413 14.582C8.45246 14.5826 8.55135 14.5426 8.63079 14.462C8.71024 14.3815 8.74996 14.2826 8.74996 14.1654V7.4987C8.74996 7.38036 8.70996 7.28148 8.62996 7.20203C8.54996 7.12259 8.45079 7.08259 8.33246 7.08203ZM11.4741 12.082C11.3558 12.082 11.2569 12.122 11.1775 12.202C11.098 12.282 11.058 12.3809 11.0575 12.4987V14.1654C11.0575 14.2837 11.0975 14.3826 11.1775 14.462C11.2575 14.542 11.3566 14.582 11.475 14.582C11.5933 14.582 11.6922 14.542 11.7716 14.462C11.8511 14.382 11.8908 14.2831 11.8908 14.1654V12.4987C11.8908 12.3804 11.8508 12.2815 11.7708 12.202C11.6908 12.1226 11.5919 12.0826 11.4741 12.082ZM15 9.58203C14.5622 9.58203 14.1419 9.50981 13.7391 9.36536C13.3363 9.22092 12.9613 9.01259 12.6141 8.74036L12.045 9.25703C11.9527 9.33481 11.8508 9.37648 11.7391 9.38203C11.6275 9.38759 11.533 9.3512 11.4558 9.27286C11.3669 9.18398 11.3225 9.08564 11.3225 8.97786C11.3225 8.87009 11.3669 8.77175 11.4558 8.68286L12.0283 8.12536C11.7955 7.78092 11.6077 7.4162 11.465 7.0312C11.3222 6.6462 11.2505 6.24648 11.25 5.83203C11.25 4.79425 11.6155 3.90981 12.3466 3.1787C13.0777 2.44759 13.9622 2.08203 15 2.08203H18.0766C18.2677 2.08203 18.4277 2.14648 18.5566 2.27536C18.6855 2.40425 18.75 2.56425 18.75 2.75536V5.83203C18.75 6.86981 18.3844 7.75425 17.6533 8.48536C16.9222 9.21648 16.0377 9.58203 15 9.58203ZM15 8.7487C15.81 8.7487 16.4988 8.46536 17.0666 7.8987C17.6333 7.33036 17.9166 6.64148 17.9166 5.83203V2.91536H15C14.19 2.91536 13.5011 3.1987 12.9333 3.76536C12.3666 4.3337 12.0833 5.02259 12.0833 5.83203C12.0833 6.13259 12.138 6.42148 12.2475 6.6987C12.3569 6.97648 12.4838 7.24703 12.6283 7.51037L15.1633 4.97453C15.2522 4.88564 15.3505 4.8412 15.4583 4.8412C15.5661 4.8412 15.6633 4.88453 15.75 4.9712C15.8444 5.06564 15.8916 5.16842 15.8916 5.27953C15.8916 5.39064 15.8455 5.49259 15.7533 5.58536L13.2333 8.10453C13.4777 8.31564 13.7536 8.47592 14.0608 8.58536C14.368 8.69481 14.6811 8.74925 15 8.7487Z" fill="currentColor"/>
</svg>
