<svg width="22" height="22" viewBox="0 0 22 22" fill="none" xmlns="http://www.w3.org/2000/svg">
<path d="M9.29043 19.25L8.95859 16.599C8.66587 16.5104 8.34962 16.3717 8.00984 16.1828C7.66946 15.9934 7.3801 15.7905 7.14176 15.5742L4.69609 16.6146L2.98651 13.6354L5.10034 12.0413C5.07284 11.8763 5.05054 11.7058 5.03343 11.5298C5.01509 11.3538 5.00593 11.183 5.00593 11.0174C5.00593 10.8634 5.01509 10.7015 5.03343 10.5316C5.05054 10.3617 5.07284 10.1704 5.10034 9.95775L2.98651 8.3655L4.69609 5.42117L7.12343 6.44417C7.39721 6.21622 7.6936 6.01058 8.0126 5.82725C8.33037 5.64392 8.6399 5.50214 8.94118 5.40192L9.28951 2.75H12.7105L13.0414 5.41933C13.3928 5.54278 13.7033 5.68425 13.9728 5.84375C14.2423 6.00325 14.52 6.20308 14.806 6.44325L17.3039 5.42117L19.0135 8.36458L16.83 10.0109C16.8801 10.2004 16.9082 10.3742 16.9143 10.5325C16.9205 10.6908 16.9235 10.8466 16.9235 11C16.9235 11.1424 16.9174 11.2924 16.9052 11.4501C16.8936 11.6084 16.8667 11.7996 16.8245 12.0239L18.9732 13.6354L17.2636 16.6146L14.806 15.5568C14.5206 15.7969 14.2334 16.0026 13.9443 16.1737C13.6553 16.3448 13.3543 16.4808 13.0414 16.5816L12.7105 19.25H9.29043ZM10.0833 18.3333H11.8763L12.2146 15.851C12.6766 15.7288 13.0922 15.561 13.4613 15.3478C13.8316 15.1345 14.208 14.8424 14.5906 14.4714L16.8777 15.4458L17.7888 13.8875L15.7823 12.3805C15.8587 12.1196 15.9094 11.8794 15.9344 11.66C15.9589 11.4412 15.9711 11.2212 15.9711 11C15.9711 10.7678 15.9589 10.5478 15.9344 10.34C15.91 10.1322 15.8593 9.90397 15.7823 9.65525L17.8237 8.1125L16.9125 6.55417L14.5732 7.535C14.2957 7.23006 13.9312 6.94436 13.4796 6.67792C13.0274 6.41208 12.5996 6.23578 12.1963 6.149L11.9167 3.66667H10.0888L9.80285 6.13158C9.34085 6.22997 8.91612 6.38886 8.52868 6.60825C8.14185 6.82703 7.75684 7.128 7.37368 7.51117L5.08751 6.55417L4.17634 8.1125L6.16459 9.5975C6.08821 9.80283 6.03473 10.0259 6.00418 10.2667C5.97362 10.5074 5.95834 10.758 5.95834 11.0183C5.95834 11.2506 5.97362 11.4812 6.00418 11.7104C6.03473 11.9396 6.0824 12.1626 6.14718 12.3796L4.17634 13.8875L5.08751 15.4458L7.35626 14.4833C7.71621 14.8463 8.08959 15.1375 8.47643 15.3569C8.86387 15.5763 9.30021 15.7471 9.78543 15.8693L10.0833 18.3333ZM10.9753 13.2917C11.6145 13.2917 12.1562 13.0695 12.6005 12.6252C13.0448 12.181 13.2669 11.6392 13.2669 11C13.2669 10.3608 13.0448 9.81903 12.6005 9.37475C12.1562 8.93047 11.6145 8.70833 10.9753 8.70833C10.3324 8.70833 9.78971 8.93047 9.34726 9.37475C8.90482 9.81903 8.68359 10.3608 8.68359 11C8.68359 11.6392 8.90482 12.181 9.34726 12.6252C9.78971 13.0695 10.3324 13.2917 10.9753 13.2917Z" fill="currentColor"/>
</svg>
