<svg width="20" height="20" viewBox="0 0 20 20" fill="none" xmlns="http://www.w3.org/2000/svg">
<path d="M14.1667 3.33464V8.33464L12.5 6.66797L10.8333 8.33464V3.33464H7.5V16.668H15.8333V3.33464H14.1667ZM2.5 5.83464V4.16797H4.16667V3.33464C4.16667 2.89261 4.34226 2.46868 4.65482 2.15612C4.96738 1.84356 5.39131 1.66797 5.83333 1.66797H15.8333C16.7083 1.66797 17.5 2.45964 17.5 3.33464V16.668C17.5 17.543 16.7083 18.3346 15.8333 18.3346H5.83333C4.95833 18.3346 4.16667 17.543 4.16667 16.668V15.8346H2.5V14.168H4.16667V10.8346H2.5V9.16797H4.16667V5.83464H2.5ZM4.16667 4.16797V5.83464H5.83333V4.16797H4.16667ZM4.16667 15.8346H5.83333V14.168H4.16667V15.8346ZM4.16667 10.8346H5.83333V9.16797H4.16667V10.8346Z" fill="currentColor"/>
</svg>
