<svg width="50" height="50" viewBox="0 0 25 25" fill="none" xmlns="http://www.w3.org/2000/svg">
<path d="M19.615 17.79L18.325 16.5V11.5C18.325 8.43 16.685 5.86 13.825 5.18V4.5C13.825 3.67 13.155 3 12.325 3C11.495 3 10.825 3.67 10.825 4.5V5.18C7.955 5.86 6.325 8.42 6.325 11.5V16.5L5.035 17.79C4.405 18.42 4.845 19.5 5.735 19.5H18.905C19.805 19.5 20.245 18.42 19.615 17.79ZM16.325 17.5H8.325V11.5C8.325 9.02 9.835 7 12.325 7C14.815 7 16.325 9.02 16.325 11.5V17.5ZM12.325 22.5C13.425 22.5 14.325 21.6 14.325 20.5H10.325C10.325 21.6 11.215 22.5 12.325 22.5Z" fill="#6B6F80"/>
</svg>
