<svg width="22" height="22" viewBox="0 0 22 22" fill="none" xmlns="http://www.w3.org/2000/svg">
<path d="M19.8447 18.2172C18.5359 15.9544 16.5189 14.3319 14.1651 13.5628C15.3294 12.8697 16.234 11.8135 16.74 10.5565C17.2459 9.29954 17.3253 7.91121 16.9659 6.60475C16.6064 5.29829 15.8281 4.14594 14.7503 3.32466C13.6726 2.50339 12.355 2.05859 11 2.05859C9.64502 2.05859 8.32747 2.50339 7.24973 3.32466C6.17198 4.14594 5.39362 5.29829 5.03419 6.60475C4.67475 7.91121 4.75411 9.29954 5.26007 10.5565C5.76604 11.8135 6.67063 12.8697 7.83494 13.5628C5.48111 14.3311 3.46416 15.9536 2.15533 18.2172C2.10733 18.2954 2.0755 18.3825 2.0617 18.4733C2.0479 18.5641 2.05243 18.6567 2.075 18.7457C2.09757 18.8346 2.13774 18.9182 2.19314 18.9914C2.24853 19.0646 2.31803 19.126 2.39752 19.1719C2.47702 19.2179 2.56491 19.2474 2.65601 19.2588C2.74711 19.2702 2.83956 19.2632 2.92793 19.2383C3.01629 19.2134 3.09877 19.1711 3.1705 19.1138C3.24223 19.0564 3.30176 18.9854 3.34557 18.9047C4.96463 16.1066 7.82635 14.4359 11 14.4359C14.1737 14.4359 17.0354 16.1066 18.6545 18.9047C18.6983 18.9854 18.7578 19.0564 18.8295 19.1138C18.9013 19.1711 18.9837 19.2134 19.0721 19.2383C19.1605 19.2632 19.2529 19.2702 19.344 19.2588C19.4351 19.2474 19.523 19.2179 19.6025 19.1719C19.682 19.126 19.7515 19.0646 19.8069 18.9914C19.8623 18.9182 19.9025 18.8346 19.925 18.7457C19.9476 18.6567 19.9521 18.5641 19.9383 18.4733C19.9245 18.3825 19.8927 18.2954 19.8447 18.2172ZM6.18752 8.24843C6.18752 7.29661 6.46977 6.36616 6.99857 5.57475C7.52738 4.78334 8.27899 4.16651 9.15835 3.80226C10.0377 3.43801 11.0054 3.34271 11.9389 3.5284C12.8724 3.71409 13.7299 4.17244 14.403 4.84548C15.076 5.51852 15.5344 6.37603 15.72 7.30956C15.9057 8.24309 15.8104 9.21073 15.4462 10.0901C15.0819 10.9695 14.4651 11.7211 13.6737 12.2499C12.8823 12.7787 11.9518 13.0609 11 13.0609C9.72408 13.0596 8.5008 12.5521 7.59858 11.6499C6.69635 10.7477 6.18888 9.52437 6.18752 8.24843Z" fill="currentColor"/>
</svg>
