<svg width="53" height="61" viewBox="0 0 53 61" fill="none" xmlns="http://www.w3.org/2000/svg">
<path d="M43.7915 37.7009C43.4818 39.8495 42.7301 41.9105 41.5838 43.7539C40.4374 45.5973 38.9214 47.183 37.1314 48.411C36.6814 46.5435 33.9139 45.0135 30.2914 44.586C30.6739 41.9084 31.4614 39.4109 32.0014 37.9709C32.8564 38.5109 33.8464 38.8259 34.9714 38.8259C42.959 38.8259 41.7215 25.3258 41.7215 25.3258C41.7215 25.3258 40.5964 27.5758 37.2214 27.5758H34.9714C33.9705 27.5756 32.9877 27.8423 32.1244 28.3486C31.261 28.8549 30.5484 29.5824 30.06 30.456C29.5716 31.3296 29.3251 32.3177 29.346 33.3184C29.3669 34.319 29.6544 35.2959 30.1789 36.1484C31.6639 34.5959 33.2614 33.2009 34.9714 32.0759C32.0014 35.0684 29.7289 38.8259 28.2213 42.4259C26.8038 39.6584 25.0263 37.5434 23.7213 36.5759C24.7788 37.0259 25.7688 37.7009 26.7138 38.3759C26.9613 37.8359 27.0963 37.2284 27.0963 36.5759C26.9838 30.4334 16.9713 30.9509 16.9713 30.9509C17.6688 31.8959 18.0963 33.0884 18.0963 34.3259V36.5759C18.0963 39.0509 20.1213 41.0759 22.5963 41.0759C23.7213 41.0759 24.7338 40.6709 25.5213 39.9509C26.0388 41.3684 26.4213 42.9885 26.6238 44.541C22.7538 44.8785 19.7838 46.4535 19.3113 48.4335C15.1937 45.576 12.4712 40.8284 12.4712 35.4509C12.4712 26.7658 19.5363 19.7008 28.2213 19.7008V26.4508L39.4714 17.4508L28.2213 8.45068V15.2007C22.8507 15.2007 17.7 17.3342 13.9023 21.1319C10.1047 24.9295 7.97119 30.0802 7.97119 35.4509C7.97119 40.8216 10.1047 45.9723 13.9023 49.7699C17.7 53.5676 22.8507 55.7011 28.2213 55.7011C38.6389 55.7011 47.2115 47.826 48.3365 37.7009H43.7915Z" fill="#30A85F"/>
</svg>
