<svg width="56" height="51" viewBox="0 0 56 51" fill="none" xmlns="http://www.w3.org/2000/svg">
<path d="M42.9932 37.9708L47.1832 40.7628C47.5894 41.0338 48.0839 41.1389 48.5652 41.0565C49.0465 40.974 49.4779 40.7104 49.7708 40.3198L55.5 32.6809L52.4445 30.3892L47.7981 36.5844L43.5738 33.7656C43.1613 33.4901 42.6579 33.3858 42.1699 33.4749C41.682 33.564 41.2478 33.8395 40.9594 34.243L34.875 42.7623V27.7156H31.0556V46.8128C31.0556 47.8258 31.458 48.7973 32.1742 49.5136C32.8905 50.2299 33.862 50.6323 34.875 50.6323H53.9722V46.8128H36.6759L42.9932 37.9708ZM0.5 37.2642H27.2361V41.0837H0.5V37.2642ZM0.5 46.8128H27.2361V50.6323H0.5V46.8128ZM17.6875 27.7156V18.167H19.5972C21.6224 18.1645 23.5639 17.3588 24.9959 15.9268C26.428 14.4948 27.2336 12.5533 27.2361 10.5281V4.79894H21.5069C19.5514 4.80254 17.6725 5.5597 16.2609 6.913C15.2725 5.11702 13.8203 3.61911 12.0558 2.57547C10.2913 1.53183 8.27919 0.98068 6.22917 0.979492H0.5V6.70866C0.503538 9.74651 1.71189 12.6589 3.85998 14.807C6.00806 16.9551 8.92048 18.1635 11.9583 18.167H13.8681V27.7156H0.5V31.535H27.2361V27.7156H17.6875ZM21.5069 8.61838H23.4167V10.5281C23.4167 11.5411 23.0143 12.5126 22.298 13.2289C21.5817 13.9451 20.6102 14.3475 19.5972 14.3475H17.6875V12.4378C17.6875 11.4248 18.0899 10.4534 18.8062 9.73707C19.5225 9.02079 20.494 8.61838 21.5069 8.61838ZM11.9583 14.3475C9.93315 14.345 7.99164 13.5394 6.55961 12.1074C5.12759 10.6754 4.32197 8.73384 4.31944 6.70866V4.79894H6.22917C8.25435 4.80146 10.1959 5.60708 11.6279 7.03911C13.0599 8.47113 13.8655 10.4126 13.8681 12.4378V14.3475H11.9583Z" fill="#30A85F"/>
</svg>
