<svg width="24" height="24" viewBox="0 0 24 24" fill="none" xmlns="http://www.w3.org/2000/svg">
<path d="M12 2.625C6.82233 2.625 2.625 6.82233 2.625 12C2.625 17.1777 6.82233 21.375 12 21.375C17.1777 21.375 21.375 17.1777 21.375 12C21.375 6.82233 17.1777 2.625 12 2.625ZM0.375 12C0.375 5.57969 5.57969 0.375 12 0.375C18.4203 0.375 23.625 5.57969 23.625 12C23.625 18.4203 18.4203 23.625 12 23.625C5.57969 23.625 0.375 18.4203 0.375 12Z" fill="#171616"/>
<path d="M17.2954 8.2045C17.7348 8.64384 17.7348 9.35616 17.2954 9.79549L11.2955 15.7954C10.8562 16.2348 10.1438 16.2348 9.7045 15.7954L6.7045 12.7955C6.26517 12.3562 6.26517 11.6438 6.7045 11.2045C7.14384 10.7652 7.85616 10.7652 8.29549 11.2045L10.5 13.409L15.7045 8.2045C16.1439 7.76517 16.8561 7.76517 17.2954 8.2045Z" fill="#171616"/>
</svg>
