<svg width="77" height="60" viewBox="0 0 77 60" fill="none" xmlns="http://www.w3.org/2000/svg">
<path d="M21.6555 20.321C23.2076 20.321 24.6263 20.7883 25.8279 21.5894V13.6452C25.8279 11.8094 24.3258 10.3073 22.49 10.3073H11.9922L10.2232 8.53819L12.5764 6.18496L11.3914 5L5.5 10.8914L6.68496 12.0764L9.03819 9.72315L10.8073 11.4922V15.3142C10.8073 17.15 9.30523 18.6521 7.46937 18.6521H6.56813C8.22032 20.4833 9.13592 22.8615 9.13833 25.3279C9.13833 25.8954 9.07157 26.4461 8.98812 26.9969H14.2287C14.6459 23.2417 17.8002 20.321 21.6555 20.321Z" fill="#30A85F"/>
<path d="M18.9389 54.7557C15.2218 54.7557 12.0532 53.4457 9.43318 50.8257C6.81318 48.2057 5.50212 45.036 5.5 41.3168C5.49788 37.5975 6.80894 34.4279 9.43318 31.8079C12.0574 29.1879 15.2271 27.8768 18.9421 27.8747C22.6571 27.8726 25.8267 29.1837 28.451 31.8079C31.0752 34.4321 32.3863 37.6018 32.3841 41.3168C32.382 45.0318 31.071 48.2014 28.451 50.8257C25.831 53.4499 22.6613 54.761 18.9421 54.7589M18.9262 44.8592C17.9392 44.8592 17.1047 44.514 16.4227 43.8235C15.7407 43.133 15.3997 42.2932 15.3997 41.3041C15.3997 40.315 15.7449 39.4783 16.4354 38.7942C17.128 38.1143 17.9678 37.7744 18.9548 37.7744C19.9439 37.7744 20.7795 38.1196 21.4615 38.8101C22.1435 39.5027 22.4845 40.3425 22.4845 41.3295C22.4845 42.3186 22.1392 43.1552 21.4488 43.8394C20.7562 44.5214 19.9153 44.8592 18.9262 44.8592ZM62.6868 54.7557C60.0223 54.7557 57.7677 53.8322 55.9229 51.9853C54.0781 50.1426 53.1557 47.889 53.1557 45.2245C53.1557 42.5601 54.0781 40.3054 55.9229 38.4606C57.7677 36.6158 60.0223 35.6934 62.6868 35.6934C65.3513 35.6934 67.6059 36.6158 69.4507 38.4606C71.2955 40.3054 72.2179 42.5601 72.2179 45.2245C72.2179 47.889 71.2955 50.1426 69.4507 51.9853C67.6059 53.8322 65.3513 54.7557 62.6868 54.7557ZM22.3638 19.9321C23.3783 19.9321 24.2837 20.2286 25.0801 20.8217C25.8765 21.4147 26.4378 22.1772 26.764 23.1091H10.8787V19.9321H22.3638ZM18.9389 51.5818C21.7898 51.5818 24.2128 50.5832 26.208 48.5859C28.2032 46.5886 29.2018 44.1655 29.2039 41.3168C29.206 38.468 28.2085 36.044 26.2112 34.0445C24.2139 32.0451 21.7908 31.0475 18.9421 31.0518C16.0933 31.056 13.6692 32.0536 11.6698 34.0445C9.6704 36.0355 8.67281 38.4596 8.67705 41.3168C8.68128 44.174 9.67887 46.5981 11.6698 48.589C13.6608 50.58 16.0817 51.5776 18.9389 51.5818ZM62.6868 51.5818C64.4172 51.5818 65.9094 50.9549 67.1632 49.701C68.415 48.4492 69.0409 46.9582 69.0409 45.2277C69.0409 43.4973 68.415 42.0051 67.1632 40.7513C65.9115 39.4974 64.4193 38.8715 62.6868 38.8736C60.9542 38.8758 59.4621 39.5016 58.2103 40.7513C56.9586 42.0009 56.3327 43.4931 56.3327 45.2277C56.3327 46.9624 56.9586 48.4535 58.2103 49.701C59.4621 50.9485 60.9542 51.5755 62.6868 51.5818ZM34.6939 42.9053H50.9317C51.6243 39.9888 53.1038 37.677 55.3701 35.9698C57.6363 34.2627 60.196 33.4091 63.049 33.4091C63.767 33.4091 64.4776 33.4727 65.1808 33.5997C65.8839 33.7268 66.6009 33.9365 67.3316 34.2288V15.1665H45.8485L42.5126 11.6718L46.9604 7.22393L44.7365 5L33.458 16.2785L35.8408 18.5024L40.2886 14.0546L43.6245 17.3905V22.2545C43.6245 24.6733 42.7635 26.7447 41.0416 28.4688C39.3196 30.1929 37.2482 31.0539 34.8273 31.0518H31.0625C32.2846 32.5132 33.225 34.1261 33.8837 35.8904C34.5403 37.6547 34.8485 39.4836 34.8082 41.3771C34.8082 41.6355 34.7955 41.8939 34.7701 42.1523C34.7447 42.4107 34.7193 42.6617 34.6939 42.9053Z" fill="#30A85F"/>
<path d="M36.3757 47.0108C33.1546 47.0108 30.5344 49.6311 30.5344 52.8522C30.5344 56.0733 33.1546 58.6935 36.3757 58.6935C39.5968 58.6935 42.2171 56.0733 42.2171 52.8522C42.2171 49.6311 39.5968 47.0108 36.3757 47.0108ZM36.3757 55.3556C34.9905 55.3556 33.8723 54.2374 33.8723 52.8522C33.8723 51.4669 34.9905 50.3487 36.3757 50.3487C37.761 50.3487 38.8792 51.4669 38.8792 52.8522C38.8792 54.2374 37.761 55.3556 36.3757 55.3556ZM10.5069 40.335H18.8517C18.8517 38.4991 17.3496 36.9971 15.5138 36.9971H10.5069C9.58895 36.9971 8.83792 37.7481 8.83792 38.666C8.83792 39.584 9.58895 40.335 10.5069 40.335ZM20.2369 48.3794L19.9365 47.595L21.4886 47.0108C20.718 45.2493 19.3536 43.814 17.6333 42.9553L16.9657 44.4406L16.198 44.0901L16.8656 42.5881C15.9477 42.2209 14.9129 42.0039 13.8448 42.0039C12.9602 42.0039 12.1091 42.1875 11.308 42.4379L11.8754 43.9566L11.091 44.257L10.5069 42.7049C8.74534 43.4756 7.3101 44.8399 6.45131 46.5602L7.93668 47.2278L7.5862 47.9955L6.08414 47.3279C5.71696 48.2458 5.5 49.2806 5.5 50.3487C5.5 51.2333 5.68359 52.0845 5.93393 52.8856L7.45268 52.3181L7.75309 53.1025L6.20096 53.6867C6.9716 55.4482 8.33597 56.8834 10.0563 57.7422L10.7238 56.2569L11.4916 56.6073L10.824 58.1094C11.7419 58.4766 12.7767 58.6935 13.8448 58.6935C14.7293 58.6935 15.5805 58.5099 16.3816 58.2596L15.8142 56.7408L16.5986 56.4404L17.1827 57.9926C18.9442 57.2219 20.3795 55.8576 21.2383 54.1373L19.7529 53.4697L20.1034 52.702L21.6054 53.3696C21.9726 52.4516 22.1896 51.4169 22.1896 50.3487C22.1896 49.4642 22.006 48.613 21.7557 47.8119L20.2369 48.3794ZM15.7641 54.9718C13.2106 56.0232 10.2732 54.8215 9.22178 52.268C8.17033 49.7145 9.37198 46.7772 11.9255 45.7257C14.479 44.6743 17.4164 45.8759 18.4678 48.4294C19.5359 50.9829 18.3176 53.9203 15.7641 54.9718Z" fill="#30A85F"/>
</svg>
