<svg width="36" height="27" viewBox="0 0 36 27" fill="none" xmlns="http://www.w3.org/2000/svg">
<path d="M7.11463 26.1376C5.16195 26.1376 3.49744 25.4494 2.1211 24.0731C0.744769 22.6967 0.0560456 21.0317 0.054933 19.0779C0.0538203 17.1241 0.742544 15.459 2.1211 14.0827C3.49966 12.7063 5.16473 12.0176 7.1163 12.0165C9.06787 12.0154 10.7329 12.7041 12.1115 14.0827C13.49 15.4612 14.1788 17.1263 14.1777 19.0779C14.1765 21.0294 13.4878 22.6945 12.1115 24.0731C10.7352 25.4516 9.07009 26.1403 7.1163 26.1392M7.10795 20.9387C6.58946 20.9387 6.15108 20.7574 5.79281 20.3947C5.43454 20.0319 5.25541 19.5908 5.25541 19.0712C5.25541 18.5516 5.43677 18.1121 5.79949 17.7527C6.16332 17.3956 6.60448 17.217 7.12297 17.217C7.64257 17.217 8.08151 17.3983 8.43978 17.7611C8.79805 18.1249 8.97719 18.566 8.97719 19.0845C8.97719 19.6041 8.79583 20.0436 8.4331 20.403C8.06927 20.7613 7.62755 20.9387 7.10795 20.9387ZM30.0962 26.1376C28.6965 26.1376 27.5121 25.6524 26.543 24.6822C25.5739 23.7142 25.0893 22.5304 25.0893 21.1307C25.0893 19.731 25.5739 18.5466 26.543 17.5775C27.5121 16.6084 28.6965 16.1238 30.0962 16.1238C31.4959 16.1238 32.6803 16.6084 33.6494 17.5775C34.6185 18.5466 35.1031 19.731 35.1031 21.1307C35.1031 22.5304 34.6185 23.7142 33.6494 24.6822C32.6803 25.6524 31.4959 26.1376 30.0962 26.1376ZM8.91376 7.8441C9.44672 7.8441 9.92237 7.99987 10.3407 8.31141C10.7591 8.62295 11.0539 9.0235 11.2253 9.51306H2.88048V7.8441H8.91376ZM7.11463 24.4703C8.61224 24.4703 9.8851 23.9457 10.9332 22.8964C11.9813 21.8472 12.5059 20.5744 12.507 19.0779C12.5081 17.5814 11.9841 16.3079 10.9349 15.2576C9.88565 14.2073 8.6128 13.6832 7.1163 13.6855C5.6198 13.6877 4.34638 14.2117 3.29605 15.2576C2.24572 16.3035 1.72167 17.5769 1.72389 19.0779C1.72612 20.5788 2.25017 21.8522 3.29605 22.8981C4.34193 23.944 5.61368 24.468 7.11463 24.4703ZM30.0962 24.4703C31.0052 24.4703 31.7891 24.1409 32.4477 23.4822C33.1053 22.8247 33.4341 22.0414 33.4341 21.1324C33.4341 20.2233 33.1053 19.4395 32.4477 18.7808C31.7902 18.1221 31.0063 17.7933 30.0962 17.7944C29.186 17.7955 28.4022 18.1243 27.7446 18.7808C27.0871 19.4372 26.7583 20.2211 26.7583 21.1324C26.7583 22.0436 27.0871 22.8269 27.7446 23.4822C28.4022 24.1376 29.186 24.4669 30.0962 24.4703ZM15.391 19.9123H23.921C24.2849 18.3802 25.0621 17.1658 26.2526 16.269C27.4431 15.3722 28.7877 14.9238 30.2864 14.9238C30.6636 14.9238 31.0369 14.9572 31.4063 15.024C31.7757 15.0907 32.1523 15.2009 32.5362 15.3544V5.34067H21.2507L19.4983 3.50481L21.8348 1.16827L20.6666 0L14.7418 5.9248L15.9935 7.09307L18.33 4.75653L20.0824 6.50894V9.06411C20.0824 10.3347 19.6301 11.4229 18.7256 12.3286C17.821 13.2343 16.7328 13.6866 15.4611 13.6855H13.4834C14.1254 14.4532 14.6194 15.3005 14.9654 16.2273C15.3103 17.1541 15.4722 18.1149 15.4511 19.1096C15.4511 19.2453 15.4444 19.3811 15.431 19.5168C15.4177 19.6525 15.4043 19.7844 15.391 19.9123Z" fill="#30A85F"/>
</svg>
