<svg width="23" height="22" viewBox="0 0 23 22" fill="none" xmlns="http://www.w3.org/2000/svg">
<path d="M21.5153 11.0005C21.5153 5.47749 17.0383 1.00049 11.5153 1.00049C5.99226 1.00049 1.51526 5.47749 1.51526 11.0005C1.51526 16.5235 5.99226 21.0005 11.5153 21.0005" stroke="#30A85F" stroke-width="1.5" stroke-linecap="round" stroke-linejoin="round"/>
<path d="M12.5151 1.05078C12.5151 1.05078 15.5151 5.00078 15.5151 11.0008M10.5151 20.9508C10.5151 20.9508 7.51514 17.0008 7.51514 11.0008C7.51514 5.00078 10.5151 1.05078 10.5151 1.05078M2.14514 14.5008H11.5151M2.14514 7.50078H20.8851" stroke="#30A85F" stroke-width="1.5" stroke-linecap="round" stroke-linejoin="round"/>
<path d="M21.3941 16.9174C21.8881 17.2214 21.8571 17.9604 21.3491 18.0184L18.7821 18.3094L17.6311 20.6214C17.4031 21.0804 16.6981 20.8554 16.5811 20.2874L15.3261 14.1714C15.2271 13.6914 15.6591 13.3894 16.0761 13.6464L21.3941 16.9174Z" stroke="#30A85F" stroke-width="1.5"/>
</svg>
