<svg width="31" height="30" viewBox="0 0 31 30" fill="none" xmlns="http://www.w3.org/2000/svg">
<path d="M6.4 3.33333C6.5 4.81667 6.75 6.26667 7.15 7.65L5.15 9.65C4.46667 7.65 4.03333 5.53333 3.88333 3.33333H6.4ZM22.8333 23.3667C24.25 23.7667 25.7 24.0167 27.1667 24.1167V26.6C24.9667 26.45 22.85 26.0167 20.8333 25.35L22.8333 23.3667ZM8 0H2.16667C1.25 0 0.5 0.75 0.5 1.66667C0.5 17.3167 13.1833 30 28.8333 30C29.75 30 30.5 29.25 30.5 28.3333V22.5167C30.5 21.6 29.75 20.85 28.8333 20.85C26.7667 20.85 24.75 20.5167 22.8833 19.9C22.7183 19.8384 22.5427 19.81 22.3667 19.8167C21.9333 19.8167 21.5167 19.9833 21.1833 20.3L17.5167 23.9667C12.7924 21.5506 8.94944 17.7076 6.53333 12.9833L10.2 9.31667C10.6667 8.85 10.8 8.2 10.6167 7.61667C9.98553 5.69649 9.66483 3.68791 9.66667 1.66667C9.66667 0.75 8.91667 0 8 0Z" fill="white"/>
</svg>
