<svg width="33" height="26" viewBox="0 0 33 26" fill="none" xmlns="http://www.w3.org/2000/svg">
<path d="M1.5 1.33398V0.0839844C1.16848 0.0839844 0.850537 0.21568 0.616116 0.450101C0.381696 0.684521 0.25 1.00246 0.25 1.33398H1.5ZM31.5 1.33398H32.75C32.75 1.00246 32.6183 0.684521 32.3839 0.450101C32.1495 0.21568 31.8315 0.0839844 31.5 0.0839844V1.33398ZM1.5 2.58398H31.5V0.0839844H1.5V2.58398ZM30.25 1.33398V21.334H32.75V1.33398H30.25ZM28.1667 23.4173H4.83333V25.9173H28.1667V23.4173ZM2.75 21.334V1.33398H0.25V21.334H2.75ZM4.83333 23.4173C3.68333 23.4173 2.75 22.484 2.75 21.334H0.25C0.25 22.5496 0.732886 23.7153 1.59243 24.5749C2.45197 25.4344 3.61776 25.9173 4.83333 25.9173V23.4173ZM30.25 21.334C30.25 22.484 29.3167 23.4173 28.1667 23.4173V25.9173C29.3822 25.9173 30.548 25.4344 31.4076 24.5749C32.2671 23.7153 32.75 22.5496 32.75 21.334H30.25Z" fill="white"/>
<path d="M1.5 1.33398L16.5 16.334L31.5 1.33398" stroke="white" stroke-width="2.5" stroke-linecap="round" stroke-linejoin="round"/>
</svg>
