<svg width="14" height="14" viewBox="0 0 14 14" fill="none" xmlns="http://www.w3.org/2000/svg">
<path d="M5.00033 12.6106V7.94392C5.00033 7.57573 5.2988 7.27725 5.66699 7.27725H8.33366C8.70185 7.27725 9.00033 7.57573 9.00033 7.94392V12.6106M1.66699 11.2773V6.2379C1.66699 5.43808 2.026 4.68049 2.64502 4.17401L6.15601 1.30139C6.64716 0.899537 7.35349 0.899536 7.84464 1.30139L11.3556 4.17401C11.9747 4.68049 12.3337 5.43808 12.3337 6.2379V11.2773C12.3337 12.0136 11.7367 12.6106 11.0003 12.6106H9.66699H4.33366H3.00033C2.26395 12.6106 1.66699 12.0136 1.66699 11.2773Z" stroke="white" stroke-width="1.5" stroke-linecap="round"/>
</svg>
