<svg width="36" height="36" viewBox="0 0 36 36" fill="none" xmlns="http://www.w3.org/2000/svg">
<path d="M34.1663 18.0007C34.1663 8.79565 26.7047 1.33398 17.4997 1.33398C8.29467 1.33398 0.833008 8.79565 0.833008 18.0007C0.833008 27.2057 8.29467 34.6673 17.4997 34.6673" stroke="white" stroke-width="1.5" stroke-linecap="round" stroke-linejoin="round"/>
<path d="M19.1661 1.41797C19.1661 1.41797 24.1661 8.0013 24.1661 18.0013M15.8328 34.5846C15.8328 34.5846 10.8328 28.0013 10.8328 18.0013C10.8328 8.0013 15.8328 1.41797 15.8328 1.41797M1.88281 23.8346H17.4995M1.88281 12.168H33.1161" stroke="white" stroke-width="1.5" stroke-linecap="round" stroke-linejoin="round"/>
<path d="M33.9643 27.8621C34.7877 28.3687 34.736 29.6004 33.8893 29.6971L29.611 30.1821L27.6927 34.0354C27.3127 34.8004 26.1377 34.4254 25.9427 33.4787L23.851 23.2854C23.686 22.4854 24.406 21.9821 25.101 22.4104L33.9643 27.8621Z" stroke="white" stroke-width="1.5"/>
</svg>
