<svg width="29" height="35" viewBox="0 0 29 35" fill="none" xmlns="http://www.w3.org/2000/svg">
<path fill-rule="evenodd" clip-rule="evenodd" d="M6.58398 14.6667C6.58398 12.567 7.41806 10.5534 8.90272 9.06874C10.3874 7.58408 12.401 6.75 14.5007 6.75C16.6003 6.75 18.6139 7.58408 20.0986 9.06874C21.5832 10.5534 22.4173 12.567 22.4173 14.6667C22.4173 16.7663 21.5832 18.7799 20.0986 20.2646C18.6139 21.7493 16.6003 22.5833 14.5007 22.5833C12.401 22.5833 10.3874 21.7493 8.90272 20.2646C7.41806 18.7799 6.58398 16.7663 6.58398 14.6667ZM14.5007 9.25C13.0641 9.25 11.6863 9.82068 10.6705 10.8365C9.65467 11.8523 9.08398 13.2301 9.08398 14.6667C9.08398 16.1033 9.65467 17.481 10.6705 18.4968C11.6863 19.5126 13.0641 20.0833 14.5007 20.0833C15.9372 20.0833 17.315 19.5126 18.3308 18.4968C19.3466 17.481 19.9173 16.1033 19.9173 14.6667C19.9173 13.2301 19.3466 11.8523 18.3308 10.8365C17.315 9.82068 15.9372 9.25 14.5007 9.25Z" fill="white"/>
<path fill-rule="evenodd" clip-rule="evenodd" d="M0.373635 12.7623C0.658512 9.30699 2.23235 6.08513 4.78266 3.73644C7.33297 1.38774 10.6733 0.0839738 14.1403 0.0839844H14.8603C18.3274 0.0839738 21.6676 1.38774 24.2179 3.73644C26.7683 6.08513 28.3421 9.30699 28.627 12.7623C28.944 16.6111 27.755 20.4328 25.3103 23.4223L17.322 33.1907C16.9801 33.6087 16.5496 33.9456 16.0616 34.1769C15.5736 34.4082 15.0403 34.5282 14.5003 34.5282C13.9603 34.5282 13.427 34.4082 12.939 34.1769C12.451 33.9456 12.0205 33.6087 11.6786 33.1907L3.6903 23.4223C1.2455 20.4328 0.056444 16.6111 0.373635 12.7623ZM14.1403 2.58398C11.3011 2.58441 8.56586 3.65236 6.4775 5.57585C4.38915 7.49934 3.10036 10.1377 2.86697 12.9673C2.60297 16.1704 3.59244 19.351 5.62697 21.839L13.6153 31.609C13.7227 31.7404 13.858 31.8463 14.0113 31.9191C14.1646 31.9918 14.3322 32.0295 14.502 32.0295C14.6717 32.0295 14.8393 31.9918 14.9926 31.9191C15.146 31.8463 15.2812 31.7404 15.3886 31.609L23.377 21.839C25.4103 19.3505 26.3986 16.17 26.1336 12.9673C25.9002 10.1374 24.6112 7.49881 22.5225 5.57529C20.4338 3.65176 17.6981 2.584 14.8586 2.58398H14.1403Z" fill="white"/>
</svg>
