<svg width="20" height="21" viewBox="0 0 20 21" fill="none" xmlns="http://www.w3.org/2000/svg">
<path d="M14.36 12.3008C14.44 11.6408 14.5 10.9808 14.5 10.3008C14.5 9.62078 14.44 8.96078 14.36 8.30078H17.74C17.9 8.94078 18 9.61078 18 10.3008C18 10.9908 17.9 11.6608 17.74 12.3008M12.59 17.8608C13.19 16.7508 13.65 15.5508 13.97 14.3008H16.92C15.9512 15.9691 14.4141 17.2328 12.59 17.8608ZM12.34 12.3008H7.66C7.56 11.6408 7.5 10.9808 7.5 10.3008C7.5 9.62078 7.56 8.95078 7.66 8.30078H12.34C12.43 8.95078 12.5 9.62078 12.5 10.3008C12.5 10.9808 12.43 11.6408 12.34 12.3008ZM10 18.2608C9.17 17.0608 8.5 15.7308 8.09 14.3008H11.91C11.5 15.7308 10.83 17.0608 10 18.2608ZM6 6.30078H3.08C4.03864 4.62782 5.57466 3.36202 7.4 2.74078C6.8 3.85078 6.35 5.05078 6 6.30078ZM3.08 14.3008H6C6.35 15.5508 6.8 16.7508 7.4 17.8608C5.57827 17.2331 4.04429 15.969 3.08 14.3008ZM2.26 12.3008C2.1 11.6608 2 10.9908 2 10.3008C2 9.61078 2.1 8.94078 2.26 8.30078H5.64C5.56 8.96078 5.5 9.62078 5.5 10.3008C5.5 10.9808 5.56 11.6408 5.64 12.3008M10 2.33078C10.83 3.53078 11.5 4.87078 11.91 6.30078H8.09C8.5 4.87078 9.17 3.53078 10 2.33078ZM16.92 6.30078H13.97C13.6565 5.06239 13.1931 3.86689 12.59 2.74078C14.43 3.37078 15.96 4.64078 16.92 6.30078ZM10 0.300781C4.47 0.300781 0 4.80078 0 10.3008C0 12.9529 1.05357 15.4965 2.92893 17.3718C3.85752 18.3004 4.95991 19.037 6.17317 19.5396C7.38642 20.0421 8.68678 20.3008 10 20.3008C12.6522 20.3008 15.1957 19.2472 17.0711 17.3718C18.9464 15.4965 20 12.9529 20 10.3008C20 8.98756 19.7413 7.6872 19.2388 6.47395C18.7362 5.26069 17.9997 4.1583 17.0711 3.22971C16.1425 2.30113 15.0401 1.56453 13.8268 1.06199C12.6136 0.559439 11.3132 0.300781 10 0.300781Z" fill="white"/>
</svg>
